<?xml version="1.0" encoding="UTF-8"?>
<svg version="1.1" xmlns="http://www.w3.org/2000/svg" width="512" height="512">
<path d="M0 0 C1.15145508 0.26490234 1.15145508 0.26490234 2.32617188 0.53515625 C34.17262936 8.20557866 62.95106071 26.21410218 87 48 C87.64275879 48.58104492 88.28551758 49.16208984 88.94775391 49.76074219 C96.02732486 56.19171089 102.9012699 62.61732672 109 70 C109.88292007 71.01259896 110.76860683 72.02278874 111.65625 73.03125 C153.00022793 120.18444751 186.48038845 180.35438517 199 242 C199.16226074 242.72944824 199.32452148 243.45889648 199.49169922 244.21044922 C202.1962004 256.56072551 202.31107695 268.97606636 202.375 281.5625 C202.38294586 282.38063171 202.39089172 283.19876343 202.39907837 284.04168701 C202.51381738 299.43677001 200.85439647 314.60664514 196.8125 329.5 C196.6052832 330.26932861 196.39806641 331.03865723 196.18457031 331.83129883 C185.73721575 368.77551282 161.85065534 398.80421603 128.46484375 417.61328125 C113.17711332 425.94501024 97.0458834 431.71205881 80.125 435.6875 C78.85221191 435.99143677 78.85221191 435.99143677 77.55371094 436.30151367 C62.61628265 439.65278806 47.68954441 440.38054644 32.4375 440.3125 C31.56193451 440.31034485 30.68636902 440.3081897 29.78427124 440.30596924 C15.66435596 440.25041884 1.9139274 439.56640252 -12 437 C-13.67715088 436.69400879 -13.67715088 436.69400879 -15.38818359 436.38183594 C-52.79592119 429.3955329 -88.50026235 417.55730121 -124.0625 404.25 C-124.87664368 403.94602295 -125.69078735 403.6420459 -126.52960205 403.32885742 C-128.90847767 402.43805367 -131.28453574 401.54006879 -133.66015625 400.640625 C-134.82756348 400.20492439 -134.82756348 400.20492439 -136.01855469 399.76042175 C-139.9394084 398.27279443 -143.72649515 396.68081853 -147.47412109 394.79614258 C-161.06922253 388.11302039 -173.53607472 387.95504861 -188.5 388.1875 C-191.97943867 388.21374628 -195.4583282 388.22854146 -198.93786621 388.22737122 C-201.08257047 388.22939606 -203.22734543 388.24860211 -205.3717041 388.28715515 C-206.33120972 388.29318253 -207.29071533 388.2992099 -208.27929688 388.30541992 C-209.12133667 388.3184465 -209.96337646 388.33147308 -210.83093262 388.34489441 C-213 388 -213 388 -214.76794434 386.72065735 C-216.91584928 383.72094838 -216.47048949 380.17586891 -216.4375 376.625 C-216.45748047 375.86960937 -216.47746094 375.11421875 -216.49804688 374.3359375 C-216.49449885 370.27699892 -216.29042618 368.43535948 -213.97265625 364.9609375 C-212.99619141 363.99027344 -212.99619141 363.99027344 -212 363 C-212.96679688 362.3709375 -213.93359375 361.741875 -214.9296875 361.09375 C-225.52709366 354.14845702 -235.26556292 346.70837383 -244.62890625 338.1484375 C-246.73763367 336.23772896 -248.88780105 334.39699852 -251.0625 332.5625 C-275.98693748 310.67884389 -293.29615043 277.71428643 -298 245 C-298.24239642 240.1906347 -298.24570884 235.3774004 -298.25 230.5625 C-298.25067474 229.88637665 -298.25134949 229.2102533 -298.25204468 228.51364136 C-298.23638345 218.65804817 -297.8597665 209.50180484 -295 200 C-294.6596875 198.7934375 -294.319375 197.586875 -293.96875 196.34375 C-284.24916787 164.55808951 -262.56022099 140.07386716 -236 121 C-222.47987002 111.26687728 -209.71002951 100.87612922 -198 89 C-198.78375 88.2575 -199.5675 87.515 -200.375 86.75 C-203.78085175 83.18196484 -204.85776056 81.53618598 -205.3125 76.625 C-204.85551955 71.32402683 -203.39035103 68.25470703 -199.4375 64.6875 C-195.73764695 62.12606328 -194.13493522 61.94272615 -189.6796875 62.2109375 C-174.69783755 62.89877603 -174.69783755 62.89877603 -161.96166992 56.0234375 C-159.38939284 53.3701665 -156.92206593 50.65930351 -154.55029297 47.82519531 C-152.5532224 45.47399853 -150.36692989 43.42253005 -148.0625 41.375 C-147.29550781 40.69179687 -146.52851563 40.00859375 -145.73828125 39.3046875 C-135.11637252 30.36470726 -123.96399573 22.05659861 -112 15 C-111.05036377 14.43587402 -111.05036377 14.43587402 -110.08154297 13.86035156 C-76.55922946 -5.74843492 -37.43204076 -8.64917851 0 0 Z " fill="#343471" transform="translate(304,38)"/>
<path d="M0 0 C5.17656558 4.21867131 9.49058934 8.62829317 13.6875 13.8125 C14.28981445 14.55097168 14.89212891 15.28944336 15.51269531 16.05029297 C21.73309601 23.76613945 27.42119437 31.81390383 33 40 C33.83707582 41.20974875 34.67430925 42.41938845 35.51171875 43.62890625 C62.93867101 83.61920763 85.30732945 128.2740276 95 176 C95.16226074 176.72944824 95.32452148 177.45889648 95.49169922 178.21044922 C98.1962004 190.56072551 98.31107695 202.97606636 98.375 215.5625 C98.38294586 216.38063171 98.39089172 217.19876343 98.39907837 218.04168701 C98.51381738 233.43677001 96.85439647 248.60664514 92.8125 263.5 C92.6052832 264.26932861 92.39806641 265.03865723 92.18457031 265.83129883 C81.73721575 302.77551282 57.85065534 332.80421603 24.46484375 351.61328125 C9.17711332 359.94501024 -6.9541166 365.71205881 -23.875 369.6875 C-24.72352539 369.89012451 -25.57205078 370.09274902 -26.44628906 370.30151367 C-41.38371735 373.65278806 -56.31045559 374.38054644 -71.5625 374.3125 C-72.43806549 374.31034485 -73.31363098 374.3081897 -74.21572876 374.30596924 C-88.33564404 374.25041884 -102.0860726 373.56640252 -116 371 C-117.67715088 370.69400879 -117.67715088 370.69400879 -119.38818359 370.38183594 C-156.79592119 363.3955329 -192.50026235 351.55730121 -228.0625 338.25 C-228.87664368 337.94602295 -229.69078735 337.6420459 -230.52960205 337.32885742 C-242.48400957 332.85235978 -254.26655593 328.02592232 -266 323 C-266 322.67 -266 322.34 -266 322 C-265.41539529 321.99940291 -264.83079057 321.99880582 -264.22847056 321.99819064 C-229.59884459 321.96231577 -194.96931634 321.90570626 -160.33977245 321.82207905 C-156.18403485 321.8120613 -152.02829686 321.80221722 -147.87255859 321.79248047 C-147.04520754 321.7905391 -146.21785649 321.78859772 -145.3654342 321.78659752 C-131.95979787 321.7555557 -118.55417867 321.73859079 -105.14851317 321.72680578 C-91.39845399 321.7144055 -77.64848489 321.6869296 -63.89848256 321.64538693 C-55.4103608 321.62021923 -46.92238835 321.6068851 -38.43422875 321.60857043 C-32.6177397 321.60860013 -26.80140303 321.59401877 -20.98497334 321.56783572 C-17.62641565 321.55315194 -14.26843437 321.54718004 -10.90981102 321.55419731 C-7.27187257 321.56078795 -3.63485493 321.54303386 0.00299072 321.51898193 C1.06913203 321.52674235 2.13527335 321.53450277 3.23372197 321.54249835 C8.78928536 321.55276083 8.78928536 321.55276083 13.65410995 319.17459488 C15.5812893 316.06079345 15.53081108 313.63570769 15.5 310 C15.5103125 308.783125 15.520625 307.56625 15.53125 306.3125 C15.25043158 302.97051963 15.25043158 302.97051963 13.28125 300.625 C10.77798758 298.84185416 8.98981969 298.50532164 6 298 C5.8596652 283.6484386 5.75434814 269.29698402 5.68912697 254.94487667 C5.65782277 248.28044318 5.61536499 241.61656048 5.54736328 234.95239258 C5.48214119 228.52033014 5.446287 222.08871108 5.43073654 215.65634346 C5.4196556 213.20311059 5.39801684 210.74990181 5.36561966 208.29685783 C5.32202124 204.85875001 5.31606771 201.42247092 5.31884766 197.98413086 C5.297276 196.97136581 5.27570435 195.95860077 5.253479 194.91514587 C5.29728515 189.90359455 5.61831947 186.84661063 8.95973206 182.9780426 C9.49508355 182.45801446 10.03043505 181.93798632 10.58200932 181.40219975 C15.71611574 176.32526744 15.09460594 167.31082098 15.28198242 160.63256836 C14.82473399 144.51756222 6.3858648 130.2599941 -0.87182617 116.23266602 C-1.20949509 115.55203598 -1.547164 114.87140594 -1.89506531 114.17015076 C-2.67002488 112.64808876 -3.49584372 111.1513668 -4.35749817 109.676651 C-9.05988327 100.92468396 -8.64255656 92.52590161 -8.48828125 82.86328125 C-8.47893722 81.13023405 -8.47182864 79.3971735 -8.46684265 77.66410828 C-8.44789765 73.13797511 -8.39890764 68.61266469 -8.34332275 64.08685303 C-8.29185782 59.45449956 -8.26927087 54.82201106 -8.24414062 50.18945312 C-8.19077432 41.12594377 -8.10561645 32.06304072 -8 23 C-6.88496094 22.54753906 -5.76992188 22.09507813 -4.62109375 21.62890625 C-1.02297546 20.28884291 -1.02297546 20.28884291 0.9375 17.9375 C2.85614105 12.6330218 2.71150795 7.22346234 1 1.875 C0.67 1.25625 0.34 0.6375 0 0 Z " fill="#D9E6F1" transform="translate(408,104)"/>
<path d="M0 0 C0.28195423 9.57264437 0.49317429 19.14379448 0.62174606 28.71973133 C0.68355535 33.16974002 0.7668927 37.61684726 0.90527344 42.06518555 C1.62570383 65.86052492 -0.07127918 83.01474886 -12 104 C-13.04875125 105.97176937 -14.08823055 107.94850263 -15.11767578 109.93041992 C-15.56619904 110.79036057 -16.01472229 111.65030121 -16.47683716 112.53630066 C-22.77901628 125.04103315 -24.42034364 138.1190559 -22 152 C-20.69185911 155.8551589 -19.33521489 159.06028795 -15.95120239 161.44192505 C-12.8459035 165.51304927 -13.47591524 169.66261842 -13.54589844 174.64355469 C-13.54531433 175.72678513 -13.54473022 176.81001556 -13.54412842 177.92607117 C-13.54691626 181.50833117 -13.57804274 185.08976026 -13.609375 188.671875 C-13.61683486 191.15480088 -13.622529 193.63773264 -13.62652588 196.1206665 C-13.64024051 201.98910336 -13.67176911 207.85723319 -13.71192384 213.72554421 C-13.76104074 221.06307507 -13.78250791 228.4006235 -13.8046875 235.73828125 C-13.84759343 248.82567244 -13.91510092 261.91281733 -14 275 C-17.66127705 275.08478554 -19.61463125 275.00912647 -22.63671875 272.875 C-23.29140137 272.4197998 -23.94608398 271.96459961 -24.62060547 271.49560547 C-25.30268066 271.00205566 -25.98475586 270.50850586 -26.6875 270 C-27.75315186 269.24614014 -27.75315186 269.24614014 -28.84033203 268.47705078 C-37.21053815 262.50811771 -45.04192791 256.08442706 -52.62890625 249.1484375 C-54.73763367 247.23772896 -56.88780105 245.39699852 -59.0625 243.5625 C-83.98693748 221.67884389 -101.29615043 188.71428643 -106 156 C-106.24239642 151.1906347 -106.24570884 146.3774004 -106.25 141.5625 C-106.25067474 140.88637665 -106.25134949 140.2102533 -106.25204468 139.51364136 C-106.23638345 129.65804817 -105.8597665 120.50180484 -103 111 C-102.6596875 109.7934375 -102.319375 108.586875 -101.96875 107.34375 C-92.24916787 75.55808951 -70.56022099 51.07386716 -44 32 C-32.99673462 24.07876459 -22.63343203 15.73311104 -12.7265625 6.48046875 C-11.37691406 5.25263672 -11.37691406 5.25263672 -10 4 C-9.16210938 3.23300781 -8.32421875 2.46601563 -7.4609375 1.67578125 C-4.62170105 -0.25760357 -3.33996825 -0.14909952 0 0 Z " fill="#E0EAF3" transform="translate(112,127)"/>
<path d="M0 0 C1.2114267 -0.00845947 2.42285339 -0.01691895 3.67098999 -0.02563477 C5.01544323 -0.01980171 6.35989516 -0.01365719 7.7043457 -0.00723267 C9.11862595 -0.01129724 10.53290303 -0.01663849 11.94717407 -0.02316284 C15.79012949 -0.03685594 19.63284367 -0.03152968 23.47580338 -0.02202559 C27.49429228 -0.01443926 31.5127603 -0.02147173 35.53125 -0.02618408 C42.28006709 -0.03164464 49.02878574 -0.02444218 55.77758789 -0.01016235 C63.58420672 0.00616478 71.39059051 0.00087648 79.19720364 -0.01564157 C85.89536523 -0.02924792 92.59345599 -0.03118029 99.29162693 -0.02332556 C103.29409705 -0.01864434 107.29645663 -0.01803646 111.29891968 -0.02793503 C115.06151731 -0.0365901 118.82381141 -0.03060983 122.58637619 -0.01325226 C123.96868765 -0.00927956 125.35102457 -0.01043485 126.73332596 -0.01704025 C128.61729277 -0.02521405 130.50131529 -0.01315567 132.38525391 0 C133.44049759 0.00113108 134.49574127 0.00226215 135.58296204 0.00342751 C138.19262695 0.38095093 138.19262695 0.38095093 140.03177834 1.67941856 C142.05172998 4.64019489 141.60746717 8.1065386 141.58081055 11.56845093 C141.58869598 12.82009033 141.58869598 12.82009033 141.59674072 14.09701538 C141.60995744 16.85851698 141.60119682 19.61944335 141.59106445 22.38095093 C141.59308471 24.29761872 141.59599574 26.21428577 141.59976196 28.13095093 C141.60418758 32.14925449 141.5977466 36.16735809 141.58374023 40.18563843 C141.56664823 45.34091101 141.57648814 50.49571507 141.59445763 55.65097046 C141.60528904 59.60917706 141.60185208 63.56727226 141.59407425 67.52548218 C141.59207046 69.42652441 141.59453776 71.32757669 141.60151291 73.22860718 C141.60911682 75.88382833 141.59753831 78.53828671 141.58081055 81.19345093 C141.58688324 81.98211548 141.59295593 82.77078003 141.59921265 83.58334351 C141.53732401 88.87570572 141.53732401 88.87570572 140.03177834 91.08248329 C137.43217625 92.91784019 135.55338517 92.75850605 132.38525391 92.76190186 C131.17382721 92.77036133 129.96240051 92.7788208 128.71426392 92.78753662 C127.36981067 92.78170357 126.02535875 92.77555905 124.6809082 92.76913452 C123.26662795 92.7731991 121.85235088 92.77854034 120.43807983 92.7850647 C116.59512442 92.7987578 112.75241024 92.79343154 108.90945053 92.78392744 C104.89096163 92.77634112 100.87249361 92.78337359 96.85400391 92.78808594 C90.10518682 92.7935465 83.35646816 92.78634404 76.60766602 92.77206421 C68.80104719 92.75573707 60.9946634 92.76102537 53.18805027 92.77754343 C46.48988868 92.79114977 39.79179792 92.79308214 33.09362698 92.78522742 C29.09115686 92.78054619 25.08879728 92.77993831 21.08633423 92.78983688 C17.3237366 92.79849196 13.5614425 92.79251169 9.79887772 92.77515411 C8.41656626 92.77118141 7.03422933 92.77233671 5.65192795 92.77894211 C3.76796113 92.7871159 1.88393861 92.77505752 0 92.76190186 C-1.58286552 92.76020524 -1.58286552 92.76020524 -3.19770813 92.75847435 C-5.80737305 92.38095093 -5.80737305 92.38095093 -7.64652443 91.08248329 C-9.66647608 88.12170697 -9.22221326 84.65536326 -9.19555664 81.19345093 C-9.2008136 80.35902466 -9.20607056 79.52459839 -9.21148682 78.66488647 C-9.22470353 75.90338488 -9.21594291 73.14245851 -9.20581055 70.38095093 C-9.2078308 68.46428313 -9.21074184 66.54761609 -9.21450806 64.63095093 C-9.21893367 60.61264737 -9.2124927 56.59454376 -9.19848633 52.57626343 C-9.18139433 47.42099084 -9.19123424 42.26618678 -9.20920372 37.1109314 C-9.22003513 33.1527248 -9.21659817 29.1946296 -9.20882034 25.23641968 C-9.20681656 23.33537745 -9.20928385 21.43432517 -9.216259 19.53329468 C-9.22386292 16.87807352 -9.21228441 14.22361515 -9.19555664 11.56845093 C-9.20162933 10.77978638 -9.20770203 9.99112183 -9.21395874 9.17855835 C-9.15207011 3.88619614 -9.15207011 3.88619614 -7.64652443 1.67941856 C-5.04692234 -0.15593834 -3.16813126 0.0033958 0 0 Z " fill="#FDFDFE" transform="translate(234.807373046875,92.61904907226563)"/>
<path d="M0 0 C2.78684665 1.31652358 5.18756615 2.8325946 7.6875 4.625 C12.17919697 7.44168567 15.80886731 7.83348029 21 7 C26.03302351 5.75287913 29.62534807 4.07770442 33 0 C35.78684665 1.31652358 38.18756615 2.8325946 40.6875 4.625 C45.15673539 7.43280959 48.82958888 7.85707716 54 7 C58.80755213 5.39748262 62.12830323 3.20797732 66 0 C66.66 0 67.32 0 68 0 C68.763125 0.78375 69.52625 1.5675 70.3125 2.375 C74.36671096 6.33492699 77.38637289 7.11305831 82.9375 7.3125 C88.61583457 7.18593979 92.1730353 5.68273065 96.375 1.8125 C96.91125 1.214375 97.4475 0.61625 98 0 C100.54171204 1.17309786 102.72883744 2.4908497 105.0625 4.0625 C109.94390331 7.28214899 114.29658684 7.6910436 120 7 C124.02748431 5.53229846 127.44580371 3.36946419 131 1 C131 31.03 131 61.06 131 92 C81.17 92 31.34 92 -20 92 C-20 64.28 -20 36.56 -20 8 C-16.04 7.34 -12.08 6.68 -8 6 C-4.76933923 4.21756647 -2.58155815 2.58155815 0 0 Z " fill="#60E3E6" transform="translate(255,286)"/>
<path d="M0 0 C1.15145508 0.26490234 1.15145508 0.26490234 2.32617188 0.53515625 C34.18678193 8.2089874 62.92869648 26.22492922 87 48 C87.6693457 48.60231445 88.33869141 49.20462891 89.02832031 49.82519531 C91.1112939 51.70712087 93.1829858 53.60056814 95.25 55.5 C95.89469238 56.08765137 96.53938477 56.67530273 97.20361328 57.28076172 C97.80157715 57.83779785 98.39954102 58.39483398 99.015625 58.96875 C99.54446289 59.45794922 100.07330078 59.94714844 100.61816406 60.45117188 C102.15769534 62.17675251 103.05568717 63.89825212 104 66 C99.25 64.125 99.25 64.125 97 63 C95.6265365 62.84995027 94.2471474 62.75161994 92.8671875 62.68359375 C92.06152344 62.64169922 91.25585938 62.59980469 90.42578125 62.55664062 C89.58402344 62.51732422 88.74226563 62.47800781 87.875 62.4375 C86.60076172 62.37272461 86.60076172 62.37272461 85.30078125 62.30664062 C83.20071777 62.20045764 81.10038052 62.09971503 79 62 C78.82984375 61.38511719 78.6596875 60.77023438 78.484375 60.13671875 C77.05226004 55.11319162 77.05226004 55.11319162 74 51 C70.25135584 49.12567792 67.30473267 48.8711664 63.16812134 48.85955811 C61.34269554 48.85099289 61.34269554 48.85099289 59.48039246 48.84225464 C58.12966929 48.84100931 56.77894601 48.83988421 55.42822266 48.83886719 C54.00733817 48.83423846 52.58645492 48.82921372 51.16557312 48.82382202 C47.30396843 48.8107022 43.44238112 48.80425401 39.58075762 48.79981136 C37.16839266 48.79688026 34.75603246 48.7927754 32.34366989 48.78830719 C24.79648505 48.77463402 17.24931107 48.7649662 9.7021147 48.7611053 C0.98876842 48.75662335 -7.72442109 48.73906844 -16.4377197 48.7101047 C-23.17241309 48.68849465 -29.90706234 48.6784014 -36.64179003 48.67706418 C-40.66446688 48.67601576 -44.68699632 48.67010009 -48.70963669 48.65224457 C-52.49354706 48.63577526 -56.27719901 48.6336027 -60.06113243 48.64238358 C-61.4490662 48.64315454 -62.83701381 48.63880335 -64.22491264 48.62892532 C-66.12128427 48.61622098 -68.01775955 48.62386885 -69.91415405 48.63250732 C-71.50531571 48.63030748 -71.50531571 48.63030748 -73.12862206 48.6280632 C-76.46511961 49.06024811 -78.31005858 50.0052465 -81 52 C-83.56873679 55.38569507 -83.56873679 55.38569507 -84 62 C-112.05 62 -140.1 62 -169 62 C-163.41975309 55.3037037 -163.41975309 55.3037037 -160.5 52.875 C-157.46509286 50.29787215 -154.54638324 47.63339041 -151.66235352 44.88842773 C-139.60978299 33.48694983 -126.29319507 23.43040593 -112 15 C-111.36690918 14.62391602 -110.73381836 14.24783203 -110.08154297 13.86035156 C-76.55922946 -5.74843492 -37.43204076 -8.64917851 0 0 Z " fill="#F1F5F9" transform="translate(304,38)"/>
<path d="M0 0 C33.33 0 66.66 0 101 0 C101.375 27.125 101.375 27.125 101.47802734 35.66064453 C101.51324363 37.90137916 101.54916602 40.14210285 101.5859375 42.3828125 C101.59729736 43.53966553 101.60865723 44.69651855 101.62036133 45.88842773 C101.57119436 53.71331707 101.57119436 53.71331707 104 61 C107.75183311 62.92547605 110.88460994 63.25257518 115.06565857 63.26069641 C116.28391327 63.26778122 117.50216797 63.27486603 118.75733948 63.28216553 C120.09921302 63.27987193 121.44108621 63.27736226 122.78295898 63.2746582 C124.20251737 63.27900756 125.62207341 63.28419146 127.04162598 63.29014587 C130.89081007 63.30352281 134.73989589 63.30411603 138.58909869 63.30158257 C141.8048068 63.30051202 145.0204951 63.30539838 148.23619896 63.310188 C155.82357809 63.32127857 163.41090771 63.32172306 170.99829102 63.31567383 C178.82078684 63.30963297 186.64310285 63.32194885 194.46556801 63.3432439 C201.18673772 63.36086685 207.90785024 63.36686018 214.62904221 63.36360615 C218.64109027 63.36179432 222.65301005 63.36441948 226.66503716 63.37832069 C230.43832339 63.39090584 234.21132952 63.38894862 237.98461151 63.37590981 C239.3672832 63.37354599 240.74997464 63.37627178 242.13262367 63.38453293 C244.02417578 63.39501748 245.91580784 63.38508758 247.80735779 63.3742218 C248.8646128 63.37438954 249.92186781 63.37455729 251.01116085 63.37473011 C255.59673751 62.79980668 258.96674649 61.30638414 261.84797668 57.66352844 C263.12991314 54.69963513 263.39535134 52.60443322 263.43237305 49.38354492 C263.46206429 47.73239937 263.46206429 47.73239937 263.49235535 46.04789734 C263.49874527 44.8706459 263.50513519 43.69339447 263.51171875 42.48046875 C263.52966995 41.26676102 263.54762115 40.05305328 263.56611633 38.80256653 C263.62024301 34.93091289 263.65412377 31.05938272 263.6875 27.1875 C263.72067086 24.56052969 263.75516029 21.93357567 263.79101562 19.30664062 C263.87597139 12.87118279 263.94277215 6.43576173 264 0 C267.3 0 270.6 0 274 0 C274 24.09 274 48.18 274 73 C183.58 73 93.16 73 0 73 C0 48.91 0 24.82 0 0 Z " fill="#FCFCFE" transform="translate(119,128)"/>
<path d="M0 0 C0.763125 0.78375 1.52625 1.5675 2.3125 2.375 C6.36671096 6.33492699 9.38637289 7.11305831 14.9375 7.3125 C20.61583457 7.18593979 24.1730353 5.68273065 28.375 1.8125 C28.91125 1.214375 29.4475 0.61625 30 0 C33.875 1.875 33.875 1.875 35 3 C35.08874135 6.10251201 35.11518455 9.1826812 35.09765625 12.28515625 C35.0962413 13.21597519 35.09482635 14.14679413 35.09336853 15.1058197 C35.08775172 18.09141191 35.0751964 21.07693029 35.0625 24.0625 C35.05748716 26.08137913 35.05292388 28.10025943 35.04882812 30.11914062 C35.03777683 35.07945572 35.02050095 40.03971532 35 45 C34.00097656 44.98839844 33.00195312 44.97679687 31.97265625 44.96484375 C30.68230469 44.95582031 29.39195312 44.94679688 28.0625 44.9375 C26.77472656 44.92589844 25.48695313 44.91429687 24.16015625 44.90234375 C21.13701597 44.63467451 21.13701597 44.63467451 20 46 C19.91251793 47.92667507 19.89302666 49.85651861 19.90234375 51.78515625 C19.90556641 52.95498047 19.90878906 54.12480469 19.91210938 55.33007812 C19.92048828 56.56177734 19.92886719 57.79347656 19.9375 59.0625 C19.94201172 60.29806641 19.94652344 61.53363281 19.95117188 62.80664062 C19.96300382 65.87111413 19.98093992 68.93556293 20 72 C24.95 72 29.9 72 35 72 C35 86.52 35 101.04 35 116 C12.56 116 -9.88 116 -33 116 C-33 78.05 -33 40.1 -33 1 C-29.7 2.98 -26.4 4.96 -23 7 C-15.50176273 7.89978847 -10.2638177 6.53852488 -4.1875 1.8125 C-2 0 -2 0 0 0 Z " fill="#CCACDB" transform="translate(159,286)"/>
<path d="M0 0 C2.46800047 1.15173355 4.04783565 2.04783565 6 4 C6.20387703 6.79024544 6.28317039 9.48164866 6.2746582 12.2734375 C6.2823246 13.55652802 6.2823246 13.55652802 6.29014587 14.86553955 C6.30408262 17.7020969 6.30308221 20.53841242 6.30078125 23.375 C6.30466563 25.34033296 6.30899975 27.30566508 6.31376648 29.27099609 C6.32123725 33.39358235 6.32093099 37.51608299 6.31567383 41.63867188 C6.30987473 46.93192895 6.32681671 52.22483662 6.3500185 57.51803589 C6.36472105 61.57741356 6.36563236 65.63670638 6.36250877 69.69610596 C6.36302363 71.64822075 6.36829199 73.6003401 6.37832069 75.5524292 C6.39060212 78.27737415 6.38394397 81.00162931 6.37231445 83.7265625 C6.38378006 84.94536102 6.38378006 84.94536102 6.39547729 86.18878174 C6.3742218 88.43212891 6.3742218 88.43212891 6 92 C4.515 92.99 4.515 92.99 3 94 C3.33 95.32 3.66 96.64 4 98 C59.77 98 115.54 98 173 98 C173.33 96.68 173.66 95.36 174 94 C173.01 93.34 172.02 92.68 171 92 C170.71378314 89.18882089 170.62180597 86.59884571 170.65942383 83.78662109 C170.65898575 82.9377684 170.65854767 82.08891571 170.65809631 81.21434021 C170.66019118 78.40047432 170.68355485 75.58719967 170.70703125 72.7734375 C170.71262473 70.82573777 170.716896 68.87803382 170.71989441 66.93032837 C170.73136273 61.79769285 170.76084696 56.665311 170.79400635 51.53277588 C170.82466447 46.29792716 170.83839063 41.06303756 170.85351562 35.828125 C170.88571479 25.55197173 170.93693508 15.27600694 171 5 C171.639375 5.309375 172.27875 5.61875 172.9375 5.9375 C176.88889762 7.43502265 176.88889762 7.43502265 185 8 C185 43.64 185 79.28 185 116 C119.33 116 53.66 116 -14 116 C-14 80.36 -14 44.72 -14 8 C-10.7 6.68 -7.4 5.36 -4 4 C-1.44937334 1.96169749 -1.44937334 1.96169749 0 0 Z " fill="#FDFDFE" transform="translate(222,286)"/>
<path d="M0 0 C1.10472153 -0.01583633 2.20944305 -0.03167267 3.34764099 -0.04798889 C4.53624222 -0.04302902 5.72484344 -0.03806915 6.94946289 -0.03295898 C8.78765343 -0.04225685 8.78765343 -0.04225685 10.66297913 -0.05174255 C13.254478 -0.05884634 15.84602245 -0.05565711 18.4375 -0.04296875 C22.40393078 -0.02911626 26.36799752 -0.06315548 30.33422852 -0.10131836 C32.85180722 -0.10226965 35.36938888 -0.10041022 37.88696289 -0.09545898 C39.07353989 -0.10871719 40.26011688 -0.1219754 41.48265076 -0.13563538 C46.31381963 -0.08098151 49.52483153 -0.03337859 53.73266602 2.45166016 C56.22513659 6.83606038 56.18504334 10.50309787 56.11352539 15.47094727 C56.11593735 16.42864014 56.1183493 17.38633301 56.12083435 18.37304688 C56.1198568 20.39367828 56.10648515 22.41433676 56.08154297 24.43481445 C56.04723179 27.52330736 56.06088955 30.60893842 56.08032227 33.69750977 C56.07342357 35.66366775 56.06375098 37.62981836 56.05102539 39.59594727 C56.05846519 40.97737915 56.05846519 40.97737915 56.0660553 42.38671875 C55.98852653 46.6184831 55.8594597 48.93331914 53.57421875 52.59204102 C50.40755765 55.53412409 48.60870462 55.6684492 44.37988281 55.72631836 C43.31505173 55.74238129 42.25022064 55.75844421 41.15312195 55.7749939 C36.28112368 55.8193792 31.40926245 55.86050579 26.53710938 55.88354492 C23.9657283 55.90011247 21.39439342 55.92741256 18.82324219 55.96557617 C15.12028047 56.0202728 11.41839889 56.04220885 7.71508789 56.05688477 C6.56598434 56.07955414 5.4168808 56.10222351 4.23295593 56.12557983 C-0.50657513 56.11300607 -3.59896152 56.06824489 -7.74047852 53.65136719 C-10.31372581 49.13101764 -10.214457 45.24563947 -10.14428711 40.12329102 C-10.14669907 39.11883438 -10.14911102 38.11437775 -10.15159607 37.07948303 C-10.15061838 34.96050052 -10.13724353 32.84149223 -10.11230469 30.72265625 C-10.07795941 27.47836696 -10.0916596 24.23679628 -10.11108398 20.99243164 C-10.10418646 18.93187317 -10.09451492 16.87132172 -10.08178711 14.81079102 C-10.08922691 13.35599586 -10.08922691 13.35599586 -10.09681702 11.87181091 C-10.08098068 10.96729691 -10.06514435 10.0627829 -10.04882812 9.13085938 C-10.04262955 8.33763779 -10.03643097 7.5444162 -10.03004456 6.72715759 C-8.75893673 1.30916835 -5.1202146 0.0326903 0 0 Z " fill="#60E3E7" transform="translate(138.515380859375,136.466552734375)"/>
<path d="M0 0 C0.86625 0.495 1.7325 0.99 2.625 1.5 C3.0625 3.58203125 3.0625 3.58203125 2.625 6.5 C0.53594836 8.98929777 -1.93818079 11.04519605 -4.375 13.1875 C-9.40250508 17.70719423 -9.40250508 17.70719423 -12.3046875 23.63671875 C-12.25581415 26.08387727 -11.91912764 28.12915814 -11.375 30.5 C-6.32804502 30.52842955 -2.57145197 30.24365417 1.13671875 26.59375 C2.21683507 25.41520267 3.27542489 24.21659372 4.3125 23 C9.7812499 16.72525894 9.7812499 16.72525894 14.01953125 15.59375 C14.87933594 15.5628125 15.73914063 15.531875 16.625 15.5 C20.5834658 22.40356436 20.56874219 28.71607685 19.625 36.5 C16.73394317 45.71325804 11.61511417 51.83146573 3.48828125 56.80859375 C-1.39793204 59.20607361 -4.87253633 59.52071542 -10.28051758 58.90209961 C-15.36432458 58.39630828 -19.36270279 58.11343479 -23.72412109 61.11865234 C-28.4092458 65.26644299 -32.542702 69.88631963 -36.51660156 74.71240234 C-39.6154368 77.69317896 -42.60366206 78.41585404 -46.8125 78.875 C-51.90189174 78.33927455 -54.84558172 76.24037253 -58.1875 72.4375 C-60.61459201 68.47750777 -60.76095477 65.05426632 -60.375 60.5 C-58.27643492 56.66598035 -56.01916514 54.06663821 -52.703125 51.23046875 C-44.34466019 44.55378714 -44.34466019 44.55378714 -40.53515625 35.05859375 C-40.53322581 32.12561928 -40.80057626 29.2411678 -41.08984375 26.32421875 C-41.48390003 21.03954617 -40.21669268 17.85134191 -37.375 13.5 C-36.9625 12.80648437 -36.55 12.11296875 -36.125 11.3984375 C-28.58327146 -0.0427075 -12.93080331 -5.64059733 0 0 Z " fill="#363572" transform="translate(321.375,100.5)"/>
<path d="M0 0 C106.26 0 212.52 0 322 0 C322 3.3 322 6.6 322 10 C215.74 10 109.48 10 0 10 C0 6.7 0 3.4 0 0 Z " fill="#FBDACD" transform="translate(95,409)"/>
<path d="M0 0 C1.2114267 -0.00845947 2.42285339 -0.01691895 3.67098999 -0.02563477 C5.01544323 -0.01980171 6.35989516 -0.01365719 7.7043457 -0.00723267 C9.11862595 -0.01129724 10.53290303 -0.01663849 11.94717407 -0.02316284 C15.79012949 -0.03685594 19.63284367 -0.03152968 23.47580338 -0.02202559 C27.49429228 -0.01443926 31.5127603 -0.02147173 35.53125 -0.02618408 C42.28006709 -0.03164464 49.02878574 -0.02444218 55.77758789 -0.01016235 C63.58420672 0.00616478 71.39059051 0.00087648 79.19720364 -0.01564157 C85.89536523 -0.02924792 92.59345599 -0.03118029 99.29162693 -0.02332556 C103.29409705 -0.01864434 107.29645663 -0.01803646 111.29891968 -0.02793503 C115.06151731 -0.0365901 118.82381141 -0.03060983 122.58637619 -0.01325226 C123.96868765 -0.00927956 125.35102457 -0.01043485 126.73332596 -0.01704025 C128.61729277 -0.02521405 130.50131529 -0.01315567 132.38525391 0 C133.44049759 0.00113108 134.49574127 0.00226215 135.58296204 0.00342751 C138.19262695 0.38095093 138.19262695 0.38095093 140.03177834 1.67941856 C142.05172998 4.64019489 141.60746717 8.1065386 141.58081055 11.56845093 C141.58869598 12.82009033 141.58869598 12.82009033 141.59674072 14.09701538 C141.60995744 16.85851698 141.60119682 19.61944335 141.59106445 22.38095093 C141.59308471 24.29761872 141.59599574 26.21428577 141.59976196 28.13095093 C141.60418758 32.14925449 141.5977466 36.16735809 141.58374023 40.18563843 C141.56664823 45.34091101 141.57648814 50.49571507 141.59445763 55.65097046 C141.60528904 59.60917706 141.60185208 63.56727226 141.59407425 67.52548218 C141.59207046 69.42652441 141.59453776 71.32757669 141.60151291 73.22860718 C141.60911682 75.88382833 141.59753831 78.53828671 141.58081055 81.19345093 C141.58688324 81.98211548 141.59295593 82.77078003 141.59921265 83.58334351 C141.56496418 86.51207705 141.51592875 88.81502898 140.04336548 91.39266968 C137.39326189 92.8078062 135.14142042 92.57753716 132.19262695 92.38095093 C132.19120193 91.37727982 132.18977692 90.3736087 132.18830872 89.33952332 C132.17163535 79.87837833 132.12885152 70.41766327 132.06053638 60.9567461 C132.02625318 56.09279533 132.00115434 51.2291591 131.99707031 46.36508179 C131.99279021 41.67043738 131.9643516 36.97650267 131.91919518 32.2820797 C131.90621093 30.49158551 131.90191579 28.70100643 131.90647316 26.91047096 C131.91137277 24.40091054 131.88531814 21.89342947 131.85205078 19.38412476 C131.86067642 18.64469131 131.86930206 17.90525787 131.87818909 17.14341736 C131.79274813 13.29587267 131.29152347 11.51016192 128.92785645 8.42196655 C126.17583906 6.36842388 125.11554521 5.75185351 121.76953125 5.7215271 C120.92903732 5.701884 120.0885434 5.68224091 119.22257996 5.66200256 C118.32968765 5.66593521 117.43679535 5.66986786 116.5168457 5.67391968 C115.12910698 5.65123772 115.12910698 5.65123772 113.71333313 5.62809753 C110.76868293 5.58523126 107.82505804 5.57638356 104.88012695 5.56845093 C102.87944867 5.54530579 100.87879476 5.51994042 98.87817383 5.49227905 C93.98290094 5.42943715 89.08826759 5.39709353 84.19262695 5.38095093 C84.19262695 6.04095093 84.19262695 6.70095093 84.19262695 7.38095093 C83.32857491 7.27817589 83.32857491 7.27817589 82.44706726 7.17332458 C73.10780978 6.18650906 63.78013872 6.15520578 54.3996582 6.06454468 C52.80244494 6.04609946 51.20523618 6.02726071 49.60803223 6.00802612 C43.74045021 5.94008466 37.87278254 5.8797095 32.00512695 5.81845093 C18.86700195 5.67407593 5.72887695 5.52970093 -7.80737305 5.38095093 C-7.80737305 33.10095093 -7.80737305 60.82095093 -7.80737305 89.38095093 C-8.13737305 89.38095093 -8.46737305 89.38095093 -8.80737305 89.38095093 C-8.8768137 78.2197957 -8.93015412 67.05869168 -8.96280956 55.89736462 C-8.97848074 50.7149767 -8.99974552 45.53273634 -9.03369141 40.35043335 C-9.06623304 35.35135252 -9.08421512 30.3524138 -9.09200478 25.35323524 C-9.09755763 23.44379755 -9.10840072 21.53436783 -9.12456322 19.62499046 C-9.14626851 16.95517401 -9.14934288 14.28594851 -9.14794922 11.61605835 C-9.15873505 10.82268066 -9.16952087 10.02930298 -9.18063354 9.21188354 C-9.15044545 3.88473521 -9.15044545 3.88473521 -7.64778614 1.67815685 C-5.04711157 -0.15491556 -3.16782704 0.00339548 0 0 Z " fill="#CFD8F0" transform="translate(234.807373046875,92.61904907226563)"/>
<path d="M0 0 C0.92264145 -0.00412399 1.8452829 -0.00824799 2.79588318 -0.01249695 C3.80073257 -0.00171112 4.80558197 0.00907471 5.84088135 0.02018738 C6.90460464 0.0197493 7.96832794 0.01931122 9.06428528 0.01885986 C12.58147514 0.02095046 16.09818878 0.04429494 19.61529541 0.0677948 C22.05338277 0.07338977 24.4914735 0.07766034 26.92956543 0.08065796 C33.34775091 0.09211442 39.76573285 0.12158878 46.18383789 0.1547699 C52.73257697 0.18545335 59.28134892 0.19915962 65.83013916 0.21427917 C78.68048902 0.24645747 91.53068779 0.29766373 104.38092041 0.36076355 C104.38092041 4.98076355 104.38092041 9.60076355 104.38092041 14.36076355 C90.10787163 14.47650544 75.8349341 14.56540218 61.56151199 14.61982441 C54.93408915 14.64594161 48.30698687 14.68137962 41.67974854 14.73796082 C35.28661693 14.79220302 28.89379405 14.82216808 22.50045013 14.83514977 C20.05871468 14.84440352 17.61699652 14.86247354 15.17539215 14.88941383 C11.76077986 14.92559895 8.34745073 14.93071309 4.93267822 14.9283905 C3.91847809 14.94636688 2.90427795 14.96434326 1.85934448 14.98286438 C-4.96938211 14.93245275 -4.96938211 14.93245275 -8.27856445 12.02059937 C-9.61907959 9.36076355 -9.61907959 9.36076355 -9.61907959 6.23576355 C-7.92660857 1.36990936 -4.99177409 -0.01725268 0 0 Z " fill="#FBDACD" transform="translate(115.61907958984375,106.63923645019531)"/>
<path d="M0 0 C0.98484375 0.01804687 1.9696875 0.03609375 2.984375 0.0546875 C4.10585938 0.08949219 4.10585938 0.08949219 5.25 0.125 C4.33552154 1.21018111 3.41829593 2.29304738 2.5 3.375 C1.73429687 4.27992187 1.73429687 4.27992187 0.953125 5.203125 C-0.75 7.125 -0.75 7.125 -2.93359375 8.8203125 C-5.6704146 12.29283789 -5.22434939 15.46278945 -5.0625 19.75 C-5.05283203 20.52601562 -5.04316406 21.30203125 -5.03320312 22.1015625 C-5.0241339 26.2476402 -5.0241339 26.2476402 -3.75 30.125 C5.87324082 32.17289791 5.87324082 32.17289791 15.11865234 30.09277344 C18.68657047 27.21471524 21.4410519 23.72252574 24.25 20.125 C24.58 20.125 24.91 20.125 25.25 20.125 C25.76047249 27.0447382 25.47271774 32.42786964 21.25 38.125 C16.3142753 43.44928175 11.82244783 46.9004323 4.38671875 47.265625 C-3.92502252 47.38740875 -3.92502252 47.38740875 -7.14550781 46.36303711 C-9.85800102 45.83069433 -9.85800102 45.83069433 -12.0300293 47.73974609 C-12.78711182 48.53461426 -13.54419434 49.32948242 -14.32421875 50.1484375 C-15.15630859 51.004375 -15.98839844 51.8603125 -16.84570312 52.7421875 C-18.12864258 54.10730469 -18.12864258 54.10730469 -19.4375 55.5 C-21.14793642 57.28037992 -22.86008962 59.0591126 -24.57421875 60.8359375 C-25.32791748 61.63306152 -26.08161621 62.43018555 -26.8581543 63.25146484 C-29.25207999 65.62222053 -30.2556889 66.07127053 -33.625 66.4375 C-36.75 66.125 -36.75 66.125 -39.125 64.5 C-41.23386305 61.41781554 -41.14824942 59.80995153 -40.75 56.125 C-39.16796875 53.73828125 -39.16796875 53.73828125 -36.9375 51.4375 C-36.12925781 50.58285156 -35.32101562 49.72820312 -34.48828125 48.84765625 C-32.57222132 46.94252961 -30.64628773 45.08323692 -28.66796875 43.24609375 C-28.16177002 42.7668042 -27.65557129 42.28751465 -27.1340332 41.79370117 C-25.68675424 40.43305758 -24.21492452 39.09867152 -22.7421875 37.765625 C-20.41959361 35.28069084 -20.41959361 35.28069084 -20.92578125 32.1640625 C-21.19777344 31.16117188 -21.46976562 30.15828125 -21.75 29.125 C-22.35394168 21.69948751 -22.45892279 15.20735861 -17.75 9.125 C-12.3613453 3.54862577 -7.96819923 -0.18971903 0 0 Z " fill="#CAAADA" transform="translate(308.75,105.875)"/>
<path d="M0 0 C0 36.63 0 73.26 0 111 C-4.62 111 -9.24 111 -14 111 C-14 75.36 -14 39.72 -14 3 C-8.555 2.01 -8.555 2.01 -3 1 C-1 0 -1 0 0 0 Z " fill="#FDFDFE" transform="translate(119,291)"/>
<path d="M0 0 C1.10472153 -0.01583633 2.20944305 -0.03167267 3.34764099 -0.04798889 C4.53624222 -0.04302902 5.72484344 -0.03806915 6.94946289 -0.03295898 C8.78765343 -0.04225685 8.78765343 -0.04225685 10.66297913 -0.05174255 C13.254478 -0.05884634 15.84602245 -0.05565711 18.4375 -0.04296875 C22.40393078 -0.02911626 26.36799752 -0.06315548 30.33422852 -0.10131836 C32.85180722 -0.10226965 35.36938888 -0.10041022 37.88696289 -0.09545898 C39.07353989 -0.10871719 40.26011688 -0.1219754 41.48265076 -0.13563538 C46.31381963 -0.08098151 49.52483153 -0.03337859 53.73266602 2.45166016 C56.22513659 6.83606038 56.18504334 10.50309787 56.11352539 15.47094727 C56.11593735 16.42864014 56.1183493 17.38633301 56.12083435 18.37304688 C56.1198568 20.39367828 56.10648515 22.41433676 56.08154297 24.43481445 C56.04723179 27.52330736 56.06088955 30.60893842 56.08032227 33.69750977 C56.07342357 35.66366775 56.06375098 37.62981836 56.05102539 39.59594727 C56.05846519 40.97737915 56.05846519 40.97737915 56.0660553 42.38671875 C55.98852653 46.6184831 55.8594597 48.93331914 53.57421875 52.59204102 C50.40755765 55.53412409 48.60870462 55.6684492 44.37988281 55.72631836 C43.31505173 55.74238129 42.25022064 55.75844421 41.15312195 55.7749939 C36.28112368 55.8193792 31.40926245 55.86050579 26.53710938 55.88354492 C23.9657283 55.90011247 21.39439342 55.92741256 18.82324219 55.96557617 C15.12028047 56.0202728 11.41839889 56.04220885 7.71508789 56.05688477 C6.56598434 56.07955414 5.4168808 56.10222351 4.23295593 56.12557983 C-0.50657513 56.11300607 -3.59896152 56.06824489 -7.74047852 53.65136719 C-10.31372581 49.13101764 -10.214457 45.24563947 -10.14428711 40.12329102 C-10.14669907 39.11883438 -10.14911102 38.11437775 -10.15159607 37.07948303 C-10.15061838 34.96050052 -10.13724353 32.84149223 -10.11230469 30.72265625 C-10.07795941 27.47836696 -10.0916596 24.23679628 -10.11108398 20.99243164 C-10.10418646 18.93187317 -10.09451492 16.87132172 -10.08178711 14.81079102 C-10.08922691 13.35599586 -10.08922691 13.35599586 -10.09681702 11.87181091 C-10.08098068 10.96729691 -10.06514435 10.0627829 -10.04882812 9.13085938 C-10.04262955 8.33763779 -10.03643097 7.5444162 -10.03004456 6.72715759 C-8.75893673 1.30916835 -5.1202146 0.0326903 0 0 Z M-3.51538086 7.53344727 C-3.51538086 21.06344727 -3.51538086 34.59344727 -3.51538086 48.53344727 C13.64461914 48.53344727 30.80461914 48.53344727 48.48461914 48.53344727 C48.48461914 35.00344727 48.48461914 21.47344727 48.48461914 7.53344727 C31.32461914 7.53344727 14.16461914 7.53344727 -3.51538086 7.53344727 Z " fill="#333572" transform="translate(138.515380859375,136.466552734375)"/>
<path d="M0 0 C0.33 0 0.66 0 1 0 C1 30.03 1 60.06 1 91 C-3.95 91 -8.9 91 -14 91 C-14 63.28 -14 35.56 -14 7 C-10.37 5.68 -6.74 4.36 -3 3 C-2.01 2.01 -1.02 1.02 0 0 Z " fill="#5EC9F2" transform="translate(385,287)"/>
<path d="M0 0 C5 2 5 2 7 3 C7 38.97 7 74.94 7 112 C4.69 112 2.38 112 0 112 C-0.33 97.81 -0.66 83.62 -1 69 C-5.62 69 -10.24 69 -15 69 C-17.64540597 66.35459403 -16.18562153 58.62595815 -16.1875 55.0625 C-16.20586914 53.23428711 -16.20586914 53.23428711 -16.22460938 51.36914062 C-16.22654297 50.20705078 -16.22847656 49.04496094 -16.23046875 47.84765625 C-16.23457764 46.77523682 -16.23868652 45.70281738 -16.24291992 44.59790039 C-16 42 -16 42 -14 40 C-11.25 39.76953125 -11.25 39.76953125 -8 39.8125 C-6.9275 39.81894531 -5.855 39.82539063 -4.75 39.83203125 C-2 40 -2 40 0 41 C0 27.47 0 13.94 0 0 Z " fill="#C893DC" transform="translate(194,290)"/>
<path d="M0 0 C7.26 0 14.52 0 22 0 C23.13850344 8.78274079 24.20818193 17.56622528 25.125 26.375 C25.21249512 27.18163086 25.29999023 27.98826172 25.39013672 28.81933594 C25.98018336 34.63432275 26 40.08654316 26 46 C17.42 46 8.84 46 0 46 C0 30.82 0 15.64 0 0 Z " fill="#F4AEB9" transform="translate(259,207)"/>
<path d="M0 0 C7.26 0 14.52 0 22 0 C22 15.18 22 30.36 22 46 C13.42 46 4.84 46 -4 46 C-3.52386543 35.68375102 -2.92879242 25.41064365 -2 15.125 C-1.9170166 14.19284668 -1.8340332 13.26069336 -1.74853516 12.30029297 C-1.35727866 8.10101151 -0.83077907 4.15389533 0 0 Z " fill="#FCFCFE" transform="translate(231,207)"/>
<path d="M0 0 C0.87454834 0.00523682 1.74909668 0.01047363 2.65014648 0.01586914 C3.59438477 0.0190918 4.53862305 0.02231445 5.51147461 0.02563477 C6.50469727 0.03401367 7.49791992 0.04239258 8.52124023 0.05102539 C9.51833008 0.05553711 10.51541992 0.06004883 11.54272461 0.06469727 C14.01478872 0.07652532 16.48673541 0.0930069 18.95874023 0.11352539 C19.04306957 6.18787287 18.77549501 12.0547058 18.08374023 18.08618164 C17.95056396 19.29896034 17.95056396 19.29896034 17.81469727 20.53623962 C17.5339464 23.08336605 17.24646848 25.62967872 16.95874023 28.17602539 C16.76558379 29.91751221 16.57287147 31.65904834 16.38061523 33.40063477 C15.91260332 37.63896685 15.43547388 41.87612948 14.95874023 46.11352539 C6.70874023 46.11352539 -1.54125977 46.11352539 -10.04125977 46.11352539 C-10.04125977 37.11232192 -10.04125977 37.11232192 -9.41455078 33.82470703 C-9.27763321 33.08777115 -9.14071564 32.35083527 -8.99964905 31.59156799 C-8.84966965 30.8266655 -8.69969025 30.061763 -8.54516602 29.27368164 C-8.39216537 28.46611923 -8.23916473 27.65855682 -8.08152771 26.82652283 C-7.75965674 25.13596053 -7.43425816 23.44606633 -7.10546875 21.75683594 C-6.60074642 19.16052462 -6.10826908 16.56210313 -5.61743164 13.96313477 C-5.30238728 12.31651423 -4.98665699 10.67002474 -4.67016602 9.02368164 C-4.52221085 8.24460953 -4.37425568 7.46553741 -4.22181702 6.66285706 C-2.9484454 0.16397884 -2.9484454 0.16397884 0 0 Z " fill="#F2ACB8" transform="translate(205.041259765625,206.886474609375)"/>
<path d="M0 0 C6.93 0 13.86 0 21 0 C22.68300438 4.20751095 23.71371068 8.01966364 24.5078125 12.42578125 C24.63815887 13.13220261 24.76850525 13.83862396 24.90280151 14.56645203 C25.17597464 16.05610531 25.44644252 17.54625693 25.71435547 19.03686523 C26.12211768 21.29652728 26.54292278 23.55349124 26.96484375 25.81054688 C27.22996361 27.26548001 27.49431143 28.72055407 27.7578125 30.17578125 C27.94526535 31.17306999 27.94526535 31.17306999 28.13650513 32.19050598 C28.98308623 36.9864363 29 40.98099439 29 46 C20.75 46 12.5 46 4 46 C3.42575312 40.89586809 2.85459649 35.79157436 2.29101562 30.6862793 C2.09877059 28.95300966 1.90479269 27.21993125 1.70898438 25.48706055 C1.42632149 22.98275396 1.15009247 20.4778044 0.875 17.97265625 C0.78750488 17.20977798 0.70000977 16.44689972 0.60986328 15.66090393 C0.03506637 10.34891164 0 5.41074223 0 0 Z " fill="#FAFAFC" transform="translate(288,207)"/>
<path d="M0 0 C7.26 0 14.52 0 22 0 C20.49307687 10.14612808 18.73025681 20.22550624 16.875 30.3125 C16.59488536 31.84306846 16.31493647 33.37366726 16.03515625 34.90429688 C15.35897739 38.60327532 14.67942675 42.30161097 14 46 C5.42 46 -3.16 46 -12 46 C-8.55298756 30.48844402 -4.58980323 15.21191927 0 0 Z " fill="#F9F9FB" transform="translate(174,207)"/>
<path d="M0 0 C7.26 0 14.52 0 22 0 C25.17262585 11.02865177 28.32361933 22.06212984 31.375 33.125 C31.63748535 34.06617676 31.8999707 35.00735352 32.17041016 35.97705078 C32.41065918 36.85345215 32.6509082 37.72985352 32.8984375 38.6328125 C33.21820557 39.79127686 33.21820557 39.79127686 33.54443359 40.97314453 C34 43 34 43 34 46 C25.42 46 16.84 46 8 46 C7.18040769 41.53863432 6.36200184 37.07708066 5.54638672 32.61499023 C5.2696998 31.10315113 4.99237643 29.59142833 4.71435547 28.07983398 C2.99652831 18.73721085 1.39569157 9.39720486 0 0 Z " fill="#F2ACB8" transform="translate(316,207)"/>
<path d="M0 0 C0.87454834 0.00523682 1.74909668 0.01047363 2.65014648 0.01586914 C3.59438477 0.0190918 4.53862305 0.02231445 5.51147461 0.02563477 C6.50469727 0.03401367 7.49791992 0.04239258 8.52124023 0.05102539 C9.51833008 0.05553711 10.51541992 0.06004883 11.54272461 0.06469727 C14.01478872 0.07652532 16.48673541 0.0930069 18.95874023 0.11352539 C17.68977648 6.7010041 16.27575296 13.23087424 14.64624023 19.73852539 C14.43330322 20.5915625 14.22036621 21.44459961 14.00097656 22.32348633 C11.95854393 30.36168808 9.51538619 38.22444645 6.95874023 46.11352539 C-1.29125977 46.11352539 -9.54125977 46.11352539 -18.04125977 46.11352539 C-16.66660455 39.92757692 -15.19861999 34.28156408 -13.03735352 28.39477539 C-12.7540065 27.61082397 -12.47065948 26.82687256 -12.1787262 26.01916504 C-11.58548792 24.38136821 -10.98958985 22.74453252 -10.39111328 21.10864258 C-9.47175167 18.59435955 -8.56155998 16.07689333 -7.65258789 13.55883789 C-7.073039 11.96229151 -6.49297962 10.36593033 -5.91235352 8.76977539 C-5.63942978 8.01571411 -5.36650604 7.26165283 -5.08531189 6.48474121 C-2.76259073 0.15364247 -2.76259073 0.15364247 0 0 Z " fill="#F1ABB8" transform="translate(148.041259765625,206.886474609375)"/>
<path d="M0 0 C6.93 0 13.86 0 21 0 C24.66443614 8.5682154 27.97256594 17.20355007 31.0769043 25.98510742 C31.82334917 28.09313909 32.57843928 30.19794954 33.33398438 32.30273438 C33.81301845 33.65085756 34.29155334 34.99915824 34.76953125 36.34765625 C35.19854736 37.55429932 35.62756348 38.76094238 36.06958008 40.00415039 C37 43 37 43 37 46 C28.75 46 20.5 46 12 46 C8.82737415 34.97134823 5.67638067 23.93787016 2.625 12.875 C2.36251465 11.93382324 2.1000293 10.99264648 1.82958984 10.02294922 C1.58934082 9.14654785 1.3490918 8.27014648 1.1015625 7.3671875 C0.88838379 6.59487793 0.67520508 5.82256836 0.45556641 5.02685547 C0 3 0 3 0 0 Z " fill="#F9F9FB" transform="translate(345,207)"/>
<path d="M0 0 C7.26 0 14.52 0 22 0 C20.10427605 5.68717186 18.18557032 11.33507021 16.1171875 16.95703125 C15.5845979 18.41339774 15.05204691 19.86977835 14.51953125 21.32617188 C13.69291876 23.58220709 12.86564023 25.83799513 12.03759766 28.09350586 C11.22905783 30.29738293 10.42299305 32.50215325 9.6171875 34.70703125 C9.3692746 35.37998734 9.12136169 36.05294342 8.86593628 36.74629211 C7.74255124 39.82334225 6.79615788 42.81536848 6 46 C-2.58 46 -11.16 46 -20 46 C-17.75028345 39.25085034 -17.75028345 39.25085034 -16.22827148 35.9699707 C-15.72281044 34.87402336 -15.72281044 34.87402336 -15.20713806 33.75593567 C-14.84874344 32.98698471 -14.49034882 32.21803375 -14.12109375 31.42578125 C-13.74896255 30.62013229 -13.37683136 29.81448334 -12.99342346 28.98442078 C-11.81109792 26.42572135 -10.62458914 23.86899244 -9.4375 21.3125 C-8.24739857 18.74504426 -7.05822108 16.17717072 -5.87086487 13.60844421 C-5.13361 12.01390415 -4.394686 10.42013454 -3.65391541 8.82722473 C-2.30338334 5.90959063 -1.01761027 3.0528308 0 0 Z " fill="#F9F9FC" transform="translate(117,207)"/>
<path d="M0 0 C7.26 0 14.52 0 22 0 C23.10859375 2.5059375 24.2171875 5.011875 25.359375 7.59375 C26.44453189 10.0431708 27.53034061 12.49230166 28.61621094 14.94140625 C29.36558977 16.63251093 30.11429969 18.3239122 30.86230469 20.015625 C31.94286555 22.45913329 33.02589562 24.90153465 34.109375 27.34375 C34.43871033 28.08991577 34.76804565 28.83608154 35.10736084 29.6048584 C36.73167944 33.25995861 38.41901046 36.85588018 40.24316406 40.41601562 C42 44 42 44 42 46 C33.42 46 24.84 46 16 46 C15.02160156 43.12087891 15.02160156 43.12087891 14.0234375 40.18359375 C13.14176435 37.60116533 12.25926857 35.01903899 11.375 32.4375 C11.14790344 31.77438812 10.92080688 31.11127625 10.68682861 30.42807007 C7.68061735 21.66895094 4.55844805 12.9936654 0.9609375 4.45703125 C0 2 0 2 0 0 Z " fill="#F4AEB9" transform="translate(373,207)"/>
<path d="M0 0 C106.26 0 212.52 0 322 0 C322 3.3 322 6.6 322 10 C320.68 10 319.36 10 318 10 C317.67 8.02 317.34 6.04 317 4 C212.39 3.67 107.78 3.34 0 3 C0 2.01 0 1.02 0 0 Z " fill="#F2C0BA" transform="translate(95,409)"/>
<path d="M0 0 C3.3 0 6.6 0 10 0 C10 24.09 10 48.18 10 73 C-80.42 73 -170.84 73 -264 73 C-264 72.67 -264 72.34 -264 72 C-175.56 72 -87.12 72 4 72 C6.97418646 40.5734221 6.97418646 40.5734221 0 12 C-0.29296875 8.88671875 -0.29296875 8.88671875 -0.1875 5.6875 C-0.16042969 4.61886719 -0.13335937 3.55023438 -0.10546875 2.44921875 C-0.05326172 1.23685547 -0.05326172 1.23685547 0 0 Z " fill="#CED4E9" transform="translate(383,128)"/>
<path d="M0 0 C33.33 0 66.66 0 101 0 C101 17.49 101 34.98 101 53 C100.67 53 100.34 53 100 53 C100 37.82 100 22.64 100 7 C67 7 34 7 0 7 C0 4.69 0 2.38 0 0 Z " fill="#D2DBF1" transform="translate(119,128)"/>
<path d="M0 0 C8.91 0 17.82 0 27 0 C27.12375 4.2384375 27.12375 4.2384375 27.25 8.5625 C27.28641602 9.43849854 27.32283203 10.31449707 27.36035156 11.21704102 C27.44141647 17.00599076 26.40116531 20.2847481 23 25 C20.79784516 27.17113858 19.63988803 27.89387223 16.59765625 28.3984375 C7.63645493 28.31559126 7.63645493 28.31559126 4 25 C0.06326026 19.36363461 -0.53152053 15.33456359 -0.25 8.5625 C-0.1675 5.736875 -0.085 2.91125 0 0 Z " fill="#FDFDFE" transform="translate(226,259)"/>
<path d="M0 0 C8.91 0 17.82 0 27 0 C27.12375 4.2384375 27.12375 4.2384375 27.25 8.5625 C27.28641602 9.43849854 27.32283203 10.31449707 27.36035156 11.21704102 C27.441258 16.99467447 26.35566769 20.27405059 23 25 C18.8752836 27.97363275 15.08252694 28.53974474 10.11328125 28.34765625 C6.79115182 27.80113219 5.21850307 26.47950343 3 24 C-0.2943178 18.79259644 -0.37086671 14.56737968 -0.1875 8.625 C-0.125625 5.77875 -0.06375 2.9325 0 0 Z " fill="#F4AEB9" transform="translate(259,259)"/>
<path d="M0 0 C8.91 0 17.82 0 27 0 C27.12375 4.2384375 27.12375 4.2384375 27.25 8.5625 C27.28641602 9.43849854 27.32283203 10.31449707 27.36035156 11.21704102 C27.441258 16.99467447 26.35566769 20.27405059 23 25 C18.8752836 27.97363275 15.08252694 28.53974474 10.11328125 28.34765625 C6.79115182 27.80113219 5.21850307 26.47950343 3 24 C-0.2943178 18.79259644 -0.37086671 14.56737968 -0.1875 8.625 C-0.125625 5.77875 -0.06375 2.9325 0 0 Z " fill="#FCFCFE" transform="translate(95,259)"/>
<path d="M0 0 C8.91 0 17.82 0 27 0 C27.70093458 19.06542056 27.70093458 19.06542056 23.484375 24.6875 C19.64576469 28.08163964 16.13262115 28.38833964 11.1796875 28.2421875 C8.02424992 27.89158332 6.38112928 27.10900022 4 25 C0.0587639 19.36758892 -0.53144139 15.33265971 -0.25 8.5625 C-0.1675 5.736875 -0.085 2.91125 0 0 Z " fill="#F5AEB9" transform="translate(390,259)"/>
<path d="M0 0 C8.58 0 17.16 0 26 0 C26.0825 3.01125 26.165 6.0225 26.25 9.125 C26.28641602 10.06230957 26.32283203 10.99961914 26.36035156 11.96533203 C26.43326497 17.48675857 25.75918169 20.67562665 22 25 C18.3571028 28.43848614 15.40947112 28.62166491 10.546875 28.4921875 C6.34652429 27.68046328 3.6245918 25.29879887 1 22 C0.05862745 19.17588235 -0.11725382 17.47081968 -0.09765625 14.55078125 C-0.09515869 13.78677002 -0.09266113 13.02275879 -0.09008789 12.2355957 C-0.07643188 10.78866333 -0.07643188 10.78866333 -0.0625 9.3125 C-0.041875 6.239375 -0.02125 3.16625 0 0 Z " fill="#F5AEB9" transform="translate(194,259)"/>
<path d="M0 0 C8.58 0 17.16 0 26 0 C26.0825 3.01125 26.165 6.0225 26.25 9.125 C26.28641602 10.06230957 26.32283203 10.99961914 26.36035156 11.96533203 C26.43335577 17.49363443 25.70851697 20.62900394 22 25 C18.3791831 28.10355734 14.93333102 28.63198154 10.2890625 28.4921875 C6.27673095 27.62946775 3.55484365 25.12512125 1 22 C0.05862745 19.17588235 -0.11725382 17.47081968 -0.09765625 14.55078125 C-0.09515869 13.78677002 -0.09266113 13.02275879 -0.09008789 12.2355957 C-0.07643188 10.78866333 -0.07643188 10.78866333 -0.0625 9.3125 C-0.041875 6.239375 -0.02125 3.16625 0 0 Z " fill="#FCFDFE" transform="translate(358,259)"/>
<path d="M0 0 C8.58 0 17.16 0 26 0 C26.061875 3.031875 26.12375 6.06375 26.1875 9.1875 C26.21481201 10.13391357 26.24212402 11.08032715 26.27026367 12.05541992 C26.32848498 17.95330064 25.39776938 21.20260239 21.5 25.75 C18.23258295 28.47284754 14.34371903 28.39118455 10.2890625 28.3515625 C6.33954932 27.74498198 4.69798805 25.89540181 2 23 C0.2008973 20.04154358 -0.2418562 17.8973585 -0.1953125 14.453125 C-0.19031738 13.69161133 -0.18532227 12.93009766 -0.18017578 12.14550781 C-0.16196777 11.18999023 -0.14375977 10.23447266 -0.125 9.25 C-0.08375 6.1975 -0.0425 3.145 0 0 Z " fill="#FBFBFD" transform="translate(292,259)"/>
<path d="M0 0 C8.58 0 17.16 0 26 0 C26.061875 3.031875 26.12375 6.06375 26.1875 9.1875 C26.21481201 10.13391357 26.24212402 11.08032715 26.27026367 12.05541992 C26.32848498 17.95330064 25.39776938 21.20260239 21.5 25.75 C18.23258295 28.47284754 14.34371903 28.39118455 10.2890625 28.3515625 C6.33954932 27.74498198 4.69798805 25.89540181 2 23 C0.2008973 20.04154358 -0.2418562 17.8973585 -0.1953125 14.453125 C-0.19031738 13.69161133 -0.18532227 12.93009766 -0.18017578 12.14550781 C-0.16196777 11.18999023 -0.14375977 10.23447266 -0.125 9.25 C-0.08375 6.1975 -0.0425 3.145 0 0 Z " fill="#F4AEB9" transform="translate(128,259)"/>
<path d="M0 0 C8.58 0 17.16 0 26 0 C26.061875 2.84625 26.12375 5.6925 26.1875 8.625 C26.21481201 9.51010254 26.24212402 10.39520508 26.27026367 11.30712891 C26.33520098 17.51178405 25.0952208 21.5873215 20.9375 26.375 C16.63185098 28.75684839 12.80958227 28.89265847 8 28 C4.71934062 26.36302477 2.62890719 24.1465791 0.8515625 20.90625 C-0.35029614 16.80449391 -0.21146255 12.93372944 -0.125 8.6875 C-0.08375 5.820625 -0.0425 2.95375 0 0 Z " fill="#FCFCFE" transform="translate(161,259)"/>
<path d="M0 0 C8.58 0 17.16 0 26 0 C26.061875 2.84625 26.12375 5.6925 26.1875 8.625 C26.21481201 9.51010254 26.24212402 10.39520508 26.27026367 11.30712891 C26.33119068 17.12860582 25.31159126 21.20682723 21.5 25.8125 C18.17896342 28.44165396 14.33992046 28.39383867 10.2890625 28.34765625 C6.29825158 27.74154333 4.69948296 25.96284715 2 23 C-0.54710666 18.37203672 -0.22941413 13.81534248 -0.125 8.6875 C-0.08375 5.820625 -0.0425 2.95375 0 0 Z " fill="#F5AEB9" transform="translate(325,259)"/>
<path d="M0 0 C17.16 0 34.32 0 52 0 C52 13.53 52 27.06 52 41 C50.02 41 48.04 41 46 41 C46 29.78 46 18.56 46 7 C31.15 6.67 16.3 6.34 1 6 C1 17.55 1 29.1 1 41 C0.67 41 0.34 41 0 41 C0 27.47 0 13.94 0 0 Z " fill="#5DC7EE" transform="translate(135,144)"/>
<path d="M0 0 C0.80011631 0.00368717 1.60023262 0.00737434 2.42459488 0.01117325 C3.34723633 0.00567459 4.26987778 0.00017593 5.22047806 -0.00548935 C6.22532745 0.00889175 7.23017685 0.02327286 8.26547623 0.03808975 C9.86106117 0.03721359 9.86106117 0.03721359 11.48888016 0.03631973 C15.00621503 0.03910731 18.52270338 0.07023245 22.03989029 0.10156631 C24.47797559 0.10902627 26.91606688 0.11472036 29.35416031 0.11871719 C35.77241941 0.13399265 42.19031667 0.17329154 48.60843277 0.21753311 C55.15715006 0.25844424 61.7059258 0.27671936 68.25473404 0.29687881 C81.10515347 0.33978344 93.9553043 0.40805837 106.80551529 0.49219131 C106.80551529 5.11219131 106.80551529 9.73219131 106.80551529 14.49219131 C106.47551529 14.49219131 106.14551529 14.49219131 105.80551529 14.49219131 C105.80551529 11.19219131 105.80551529 7.89219131 105.80551529 4.49219131 C68.84551529 4.49219131 31.88551529 4.49219131 -6.19448471 4.49219131 C-2.19448471 0.49219131 -2.19448471 0.49219131 0 0 Z " fill="#F1C0BB" transform="translate(113.19448471069336,106.50780868530273)"/>
<path d="M0 0 C7.26 0 14.52 0 22 0 C23.10859375 2.5059375 24.2171875 5.011875 25.359375 7.59375 C26.44453189 10.0431708 27.53034061 12.49230166 28.61621094 14.94140625 C29.36558977 16.63251093 30.11429969 18.3239122 30.86230469 20.015625 C31.94286555 22.45913329 33.02589562 24.90153465 34.109375 27.34375 C34.43871033 28.08991577 34.76804565 28.83608154 35.10736084 29.6048584 C36.73167944 33.25995861 38.41901046 36.85588018 40.24316406 40.41601562 C42 44 42 44 42 46 C33.42 46 24.84 46 16 46 C16 45.67 16 45.34 16 45 C21.94 45 27.88 45 34 45 C32.22296895 41.15832594 30.44518144 37.31701969 28.66552734 33.4765625 C28.06190313 32.17337807 27.45870317 30.86999703 26.85595703 29.56640625 C24.91625797 25.37176683 22.96237816 21.18407948 21 17 C20.40155273 15.70255859 20.40155273 15.70255859 19.79101562 14.37890625 C18.15205378 10.92615995 17.248826 9.165884 14 7 C11.02550392 6.75780685 11.02550392 6.75780685 7.8125 6.875 C6.18248047 6.90207031 6.18248047 6.90207031 4.51953125 6.9296875 C3.68808594 6.95289063 2.85664063 6.97609375 2 7 C1.34 4.69 0.68 2.38 0 0 Z " fill="#DD8C9E" transform="translate(373,207)"/>
<path d="M0 0 C1.0725 0.00515625 2.145 0.0103125 3.25 0.015625 C4.85875 0.00789063 4.85875 0.00789063 6.5 0 C9.25 0.265625 9.25 0.265625 11.25 2.265625 C10.71428571 5.80133929 10.71428571 5.80133929 9.25 7.265625 C6.94 7.265625 4.63 7.265625 2.25 7.265625 C2.25 12.545625 2.25 17.825625 2.25 23.265625 C4.56 23.265625 6.87 23.265625 9.25 23.265625 C9.91 23.925625 10.57 24.585625 11.25 25.265625 C10.875 27.390625 10.875 27.390625 10.25 29.265625 C7.93756208 29.29247912 5.6250373 29.31195341 3.3125 29.328125 C2.02472656 29.33972656 0.73695313 29.35132813 -0.58984375 29.36328125 C-3.75 29.265625 -3.75 29.265625 -4.75 28.265625 C-5.00342236 23.95914864 -4.93522638 19.64117446 -4.9375 15.328125 C-4.95586914 13.49991211 -4.95586914 13.49991211 -4.97460938 11.63476562 C-4.97654297 10.47267578 -4.97847656 9.31058594 -4.98046875 8.11328125 C-4.98457764 7.04086182 -4.98868652 5.96844238 -4.99291992 4.86352539 C-4.64450667 1.13742948 -3.69758946 0.35715353 0 0 Z " fill="#363472" transform="translate(182.75,329.734375)"/>
<path d="M0 0 C2.7302389 -0.1083667 5.45614543 -0.18746694 8.1875 -0.25 C8.95642578 -0.28351563 9.72535156 -0.31703125 10.51757812 -0.3515625 C14.50846777 -0.42007563 16.51974146 -0.29114119 20.015625 1.828125 C22 4 22 4 22.5625 7 C21.85147685 10.79212348 21.1306877 11.74936737 18 14 C14.90195612 14.4893821 11.87643651 14.37701148 8.75 14.25 C7.90953125 14.23195313 7.0690625 14.21390625 6.203125 14.1953125 C4.13492605 14.14830798 2.06731559 14.07656724 0 14 C0 9.38 0 4.76 0 0 Z " fill="#FBDACD" transform="translate(383,107)"/>
<path d="M0 0 C8.91 0 17.82 0 27 0 C27.70093458 19.06542056 27.70093458 19.06542056 23.484375 24.6875 C21.75376219 26.21772607 20.14286386 27.14115377 18 28 C15.75 27.625 15.75 27.625 14 27 C14.639375 26.236875 15.27875 25.47375 15.9375 24.6875 C18.50080957 21.34742995 19.11325737 18.86153009 19.31640625 14.76953125 C19.35451416 14.04612549 19.39262207 13.32271973 19.43188477 12.57739258 C19.49653931 11.20877075 19.49653931 11.20877075 19.5625 9.8125 C19.706875 6.904375 19.85125 3.99625 20 1 C13.73 1 7.46 1 1 1 C1 6.61 1 12.22 1 18 C0.67 18 0.34 18 0 18 C0 12.06 0 6.12 0 0 Z " fill="#D2879D" transform="translate(390,259)"/>
<path d="M0 0 C0.51047249 6.9197382 0.22271774 12.30286964 -4 18 C-8.99274729 23.38579335 -13.47435529 26.73203419 -20.96875 27.17578125 C-24.0177797 27.2447474 -26.96502841 27.3089492 -30 27 C-30.66 26.34 -31.32 25.68 -32 25 C-31.443125 24.90203125 -30.88625 24.8040625 -30.3125 24.703125 C-21.98218 23.07083257 -15.62709863 20.63317892 -10.234375 13.86328125 C-8.40307517 11.09894574 -7.29660066 8.04419286 -6 5 C-1.53191489 0 -1.53191489 0 0 0 Z " fill="#C591DA" transform="translate(334,126)"/>
<path d="M0 0 C-3.98755696 4.89899855 -8.29457191 9.40487359 -12.75 13.875 C-13.32903076 14.45854248 -13.90806152 15.04208496 -14.50463867 15.64331055 C-19.77565295 20.89580025 -19.77565295 20.89580025 -23.9375 21.25 C-27 21 -27 21 -28.875 19.5 C-29.24625 19.005 -29.6175 18.51 -30 18 C-28.989375 17.505 -27.97875 17.01 -26.9375 16.5 C-23.04265397 14.29004712 -20.60156567 11.43219126 -17.7421875 8.0390625 C-12.23934249 1.59851296 -8.69029856 -1.06411819 0 0 Z " fill="#C390D9" transform="translate(299,151)"/>
<path d="M0 0 C8.58 0 17.16 0 26 0 C26.0825 3.01125 26.165 6.0225 26.25 9.125 C26.28641602 10.06230957 26.32283203 10.99961914 26.36035156 11.96533203 C26.43326734 17.48693805 25.72688189 20.64857688 22 25 C19.4375 26.9375 19.4375 26.9375 17 28 C16.01 27.67 15.02 27.34 14 27 C14.64453125 26.04996094 15.2890625 25.09992188 15.953125 24.12109375 C18.56965456 19.54216701 18.66197166 15.2368598 18.75 10.0625 C18.8325 7.071875 18.915 4.08125 19 1 C12.73 1 6.46 1 0 1 C0 0.67 0 0.34 0 0 Z " fill="#C9D2EA" transform="translate(358,259)"/>
<path d="M0 0 C8.58 0 17.16 0 26 0 C26.061875 3.031875 26.12375 6.06375 26.1875 9.1875 C26.21481201 10.13391357 26.24212402 11.08032715 26.27026367 12.05541992 C26.31805536 16.8967696 26.11136112 20.04501112 23 24 C22.566875 24.5775 22.13375 25.155 21.6875 25.75 C19.27663596 27.53582522 16.93475732 27.67391585 14 28 C14.96679688 26.329375 14.96679688 26.329375 15.953125 24.625 C18.38469592 19.76185815 18.65787073 15.3622996 18.75 10 C18.8325 7.03 18.915 4.06 19 1 C12.73 1 6.46 1 0 1 C0 0.67 0 0.34 0 0 Z " fill="#CED6ED" transform="translate(292,259)"/>
<path d="M0 0 C7.26 0 14.52 0 22 0 C22.33 2.97 22.66 5.94 23 9 C22.67 8.01 22.34 7.02 22 6 C15.07 6 8.14 6 1 6 C1 18.87 1 31.74 1 45 C9.25 45 17.5 45 26 45 C26 45.33 26 45.66 26 46 C17.42 46 8.84 46 0 46 C0 30.82 0 15.64 0 0 Z " fill="#CC889F" transform="translate(259,207)"/>
<path d="M0 0 C7.26 0 14.52 0 22 0 C22 15.18 22 30.36 22 46 C13.42 46 4.84 46 -4 46 C-4 45.67 -4 45.34 -4 45 C4.25 45 12.5 45 21 45 C21 32.13 21 19.26 21 6 C14.07 6 7.14 6 0 6 C-0.33 6.99 -0.66 7.98 -1 9 C-0.67 6.03 -0.34 3.06 0 0 Z " fill="#C2C8DF" transform="translate(231,207)"/>
<path d="M0 0 C8.58 0 17.16 0 26 0 C26.061875 2.84625 26.12375 5.6925 26.1875 8.625 C26.21481201 9.51010254 26.24212402 10.39520508 26.27026367 11.30712891 C26.33134559 17.14340795 25.16698723 21.00749383 21.6875 25.8125 C19.26530302 27.51700899 16.90074165 27.67769537 14 28 C14.64453125 27.06027344 15.2890625 26.12054688 15.953125 25.15234375 C18.64883767 20.43484657 18.66557789 15.89260517 18.75 10.5625 C18.79447266 9.17901367 18.79447266 9.17901367 18.83984375 7.76757812 C18.90995985 5.51217677 18.9573115 3.25608715 19 1 C12.73 1 6.46 1 0 1 C0 0.67 0 0.34 0 0 Z " fill="#DF8EA0" transform="translate(325,259)"/>
<path d="M0 0 C8.91 0 17.82 0 27 0 C27.12375 4.2384375 27.12375 4.2384375 27.25 8.5625 C27.28641602 9.43849854 27.32283203 10.31449707 27.36035156 11.21704102 C27.44132161 16.99921686 26.32641465 20.25496733 23 25 C20.75 26.9375 20.75 26.9375 19 28 C18.34 27.67 17.68 27.34 17 27 C17.64453125 25.8759375 18.2890625 24.751875 18.953125 23.59375 C21.30881101 18.88237798 21.6553098 14.69829898 21.75 9.5 C21.8325 6.695 21.915 3.89 22 1 C15.07 1 8.14 1 1 1 C1 6.61 1 12.22 1 18 C0.67 18 0.34 18 0 18 C0 12.06 0 6.12 0 0 Z " fill="#BDC4DE" transform="translate(226,259)"/>
<path d="M0 0 C8.91 0 17.82 0 27 0 C27.12375 4.2384375 27.12375 4.2384375 27.25 8.5625 C27.28641602 9.43849854 27.32283203 10.31449707 27.36035156 11.21704102 C27.44123454 16.99299859 26.37397478 20.28493092 23 25 C22.01 25.66 21.02 26.32 20 27 C19.01 26.67 18.02 26.34 17 26 C17.64453125 25.21367187 18.2890625 24.42734375 18.953125 23.6171875 C21.78091096 19.37550857 21.66643221 15.08534547 21.75 10.125 C21.8325 7.11375 21.915 4.1025 22 1 C15.07 1 8.14 1 1 1 C1 6.61 1 12.22 1 18 C0.67 18 0.34 18 0 18 C0 12.06 0 6.12 0 0 Z " fill="#CC859C" transform="translate(259,259)"/>
<path d="M0 0 C8.91 0 17.82 0 27 0 C27.12375 4.2384375 27.12375 4.2384375 27.25 8.5625 C27.28641602 9.43849854 27.32283203 10.31449707 27.36035156 11.21704102 C27.44123454 16.99299859 26.37397478 20.28493092 23 25 C22.01 25.66 21.02 26.32 20 27 C19.01 26.67 18.02 26.34 17 26 C17.64453125 25.21367187 18.2890625 24.42734375 18.953125 23.6171875 C21.78091096 19.37550857 21.66643221 15.08534547 21.75 10.125 C21.8325 7.11375 21.915 4.1025 22 1 C15.07 1 8.14 1 1 1 C1 6.61 1 12.22 1 18 C0.67 18 0.34 18 0 18 C0 12.06 0 6.12 0 0 Z " fill="#BEC5DF" transform="translate(95,259)"/>
<path d="M0 0 C0.33 0 0.66 0 1 0 C1 6.27 1 12.54 1 19 C-1.97 18.67 -4.94 18.34 -8 18 C-8 12.72 -8 7.44 -8 2 C-4.535 1.505 -4.535 1.505 -1 1 C-0.67 0.67 -0.34 0.34 0 0 Z " fill="#CCACDB" transform="translate(193,335)"/>
<path d="M0 0 C8.58 0 17.16 0 26 0 C26.0825 3.01125 26.165 6.0225 26.25 9.125 C26.28641602 10.06230957 26.32283203 10.99961914 26.36035156 11.96533203 C26.43333687 17.49220328 25.71207169 20.63285684 22 25 C19.75 26.875 19.75 26.875 18 28 C17.34 27.67 16.68 27.34 16 27 C16.64453125 26.22398437 17.2890625 25.44796875 17.953125 24.6484375 C20.86492617 20.28073575 20.66861207 15.72503347 20.75 10.625 C20.8325 7.44875 20.915 4.2725 21 1 C14.07 1 7.14 1 0 1 C0 0.67 0 0.34 0 0 Z " fill="#D78B9F" transform="translate(194,259)"/>
<path d="M0 0 C8.58 0 17.16 0 26 0 C26.061875 3.031875 26.12375 6.06375 26.1875 9.1875 C26.21481201 10.13391357 26.24212402 11.08032715 26.27026367 12.05541992 C26.3289207 17.99744018 25.45100866 21.36743514 21.3125 25.8125 C20.879375 26.204375 20.44625 26.59625 20 27 C19.01 26.67 18.02 26.34 17 26 C17.474375 25.401875 17.94875 24.80375 18.4375 24.1875 C20.64872922 21.0917791 21.13245256 18.47488406 21.31640625 14.76953125 C21.35451416 14.04612549 21.39262207 13.32271973 21.43188477 12.57739258 C21.49653931 11.20877075 21.49653931 11.20877075 21.5625 9.8125 C21.706875 6.904375 21.85125 3.99625 22 1 C15.07 1 8.14 1 1 1 C1 6.94 1 12.88 1 19 C0.67 19 0.34 19 0 19 C0 12.73 0 6.46 0 0 Z " fill="#D98EA1" transform="translate(128,259)"/>
<path d="M0 0 C6.93 0 13.86 0 21 0 C23.25 5.625 23.25 5.625 22 9 C22 8.01 22 7.02 22 6 C15.07 6 8.14 6 1 6 C0.67 6.99 0.34 7.98 0 9 C0 6.03 0 3.06 0 0 Z " fill="#C8D0E8" transform="translate(288,207)"/>
<path d="M0 0 C0.87454834 0.00523682 1.74909668 0.01047363 2.65014648 0.01586914 C3.59438477 0.0190918 4.53862305 0.02231445 5.51147461 0.02563477 C6.50469727 0.03401367 7.49791992 0.04239258 8.52124023 0.05102539 C9.51833008 0.05553711 10.51541992 0.06004883 11.54272461 0.06469727 C14.01478872 0.07652532 16.48673541 0.0930069 18.95874023 0.11352539 C18.95874023 3.08352539 18.95874023 6.05352539 18.95874023 9.11352539 C18.62874023 8.12352539 18.29874023 7.13352539 17.95874023 6.11352539 C11.02874023 6.11352539 4.09874023 6.11352539 -3.04125977 6.11352539 C-3.37125977 7.10352539 -3.70125977 8.09352539 -4.04125977 9.11352539 C-3.04747767 0.16948656 -3.04747767 0.16948656 0 0 Z " fill="#D98B9F" transform="translate(205.041259765625,206.886474609375)"/>
<path d="M0 0 C7.26 0 14.52 0 22 0 C22.33 1.98 22.66 3.96 23 6 C16.07 6 9.14 6 2 6 C1.67 6.99 1.34 7.98 1 9 C0.67 6.03 0.34 3.06 0 0 Z " fill="#D88A9E" transform="translate(316,207)"/>
<path d="M0 0 C8.58 0 17.16 0 26 0 C26.061875 2.84625 26.12375 5.6925 26.1875 8.625 C26.21481201 9.51010254 26.24212402 10.39520508 26.27026367 11.30712891 C26.32248272 16.29657429 25.7866531 19.68857445 23 24 C20.3125 26.375 20.3125 26.375 18 28 C17.34 27.67 16.68 27.34 16 27 C16.639375 26.071875 17.27875 25.14375 17.9375 24.1875 C20.2247067 20.652726 21.09975048 18.10474083 21.31640625 13.98828125 C21.35451416 13.30548096 21.39262207 12.62268066 21.43188477 11.91918945 C21.49653931 10.62887817 21.49653931 10.62887817 21.5625 9.3125 C21.706875 6.569375 21.85125 3.82625 22 1 C14.74 1 7.48 1 0 1 C0 0.67 0 0.34 0 0 Z " fill="#C9D1E9" transform="translate(161,259)"/>
<path d="M0 0 C2.7302389 -0.1083667 5.45614543 -0.18746694 8.1875 -0.25 C8.95642578 -0.28351563 9.72535156 -0.31703125 10.51757812 -0.3515625 C14.50436761 -0.42000524 16.52275494 -0.2877053 20.01953125 1.8203125 C22 4 22 4 22.5 7.125 C22.335 8.07375 22.17 9.0225 22 10 C21.01 10.66 20.02 11.32 19 12 C18.38125 11.030625 17.7625 10.06125 17.125 9.0625 C15.34321154 5.97164638 15.34321154 5.97164638 13 5 C10.795636 4.77049681 8.58607827 4.58924067 6.375 4.4375 C5.18648438 4.35371094 3.99796875 4.26992187 2.7734375 4.18359375 C1.40058594 4.09271484 1.40058594 4.09271484 0 4 C0 2.68 0 1.36 0 0 Z " fill="#F0BEB9" transform="translate(383,107)"/>
<path d="M0 0 C7.26 0 14.52 0 22 0 C21.34 2.31 20.68 4.62 20 7 C19.67 6.34 19.34 5.68 19 5 C8.605 5.495 8.605 5.495 -2 6 C-1.34 4.02 -0.68 2.04 0 0 Z " fill="#C2CBE5" transform="translate(117,207)"/>
<path d="M0 0 C6.93 0 13.86 0 21 0 C21.66 1.98 22.32 3.96 23 6 C16.07 5.67 9.14 5.34 2 5 C1.67 5.66 1.34 6.32 1 7 C0.67 4.69 0.34 2.38 0 0 Z " fill="#C3CCE6" transform="translate(345,207)"/>
<path d="M0 0 C7.26 0 14.52 0 22 0 C21.67 2.31 21.34 4.62 21 7 C20.67 6.34 20.34 5.68 20 5 C13.07 5 6.14 5 -1 5 C-0.67 3.35 -0.34 1.7 0 0 Z " fill="#C2CBE6" transform="translate(174,207)"/>
<path d="M0 0 C6.93 0 13.86 0 21 0 C20.67 2.31 20.34 4.62 20 7 C19.67 6.34 19.34 5.68 19 5 C8.605 5.495 8.605 5.495 -2 6 C-1.34 4.02 -0.68 2.04 0 0 Z " fill="#D6889C" transform="translate(146,207)"/>
</svg>
