<?xml version="1.0" encoding="UTF-8"?>
<svg version="1.1" xmlns="http://www.w3.org/2000/svg" width="512" height="512">
<path d="M0 0 C1.54148793 -0.00505157 3.08296997 -0.0122851 4.62443864 -0.02149814 C8.83938666 -0.0403604 13.05375146 -0.02822108 17.26868439 -0.01077521 C21.82224536 0.00262789 26.37572265 -0.01284873 30.92927551 -0.02459717 C39.84083231 -0.0429553 48.75216952 -0.03447403 57.66371943 -0.01650894 C64.90646809 -0.00247267 72.14915722 0.00140764 79.39191818 -0.00195122 C80.93923577 -0.00266738 80.93923577 -0.00266738 82.5178123 -0.00339801 C84.61347213 -0.00442436 86.70913194 -0.00547972 88.80479173 -0.00656378 C107.32607163 -0.01512692 125.84724563 0.00153261 144.36849976 0.03126526 C162.33696947 0.06011007 180.30528667 0.06718173 198.27377319 0.05177307 C217.84769512 0.03501065 237.42154468 0.03097649 256.9954685 0.04848343 C259.08272703 0.0503278 261.16998556 0.05216253 263.25724411 0.0539875 C264.79765044 0.05535564 264.79765044 0.05535564 266.3691761 0.05675141 C273.60362926 0.0623559 280.83804707 0.05905052 288.07249832 0.05244255 C296.88813182 0.04470986 305.70361521 0.05145994 314.51921846 0.07661759 C319.01644573 0.08911311 323.5134393 0.09525844 328.01067543 0.08407593 C332.12867702 0.07402971 336.24621268 0.08250109 340.3641576 0.10565711 C341.85254323 0.11081311 343.34097067 0.10926043 344.82933803 0.10026246 C352.8873693 0.05560559 358.8259448 0.21765796 365.69076538 4.62818909 C366.57764038 5.18506409 367.46451538 5.74193909 368.37826538 6.31568909 C376.06819199 14.0056157 376.83852662 22.46913079 376.84898376 32.7963562 C376.85392174 33.82968352 376.85885972 34.86301084 376.86394733 35.92765111 C376.87932134 39.39464196 376.88768274 42.8616143 376.89608765 46.32862854 C376.90566624 48.81209476 376.91567631 51.29555934 376.92608643 53.77902222 C376.94753614 59.12807996 376.96598003 64.47713518 376.98169136 69.82621193 C377.00441244 77.56005934 377.03255215 85.29387957 377.06201064 93.0277039 C377.10965912 105.57559126 377.15293073 118.12348973 377.19345093 130.67140198 C377.23281982 142.85988734 377.27424939 155.04836283 377.31845093 167.23683167 C377.3211752 167.98824093 377.32389947 168.7396502 377.3267063 169.51382945 C377.34038601 173.28346235 377.35410623 177.05309511 377.36784661 180.8227278 C377.48176827 212.09119451 377.58851424 243.35968193 377.69076538 274.62818909 C378.16565741 274.20503206 378.64054945 273.78187502 379.12983215 273.34589505 C379.75585929 272.79677292 380.38188642 272.24765078 381.02688408 271.68188858 C381.64615111 271.13498155 382.26541815 270.58807452 382.90345085 270.02459455 C385.16054656 268.2611552 386.84383939 267.79677077 389.69076538 267.62818909 C390.50004486 267.56931519 391.30932434 267.51044128 392.14312744 267.44978333 C392.99915558 267.42519043 393.85518372 267.40059753 394.7371521 267.3752594 C395.7152182 267.3456311 396.6932843 267.31600281 397.70098877 267.28547668 C398.74691193 267.25935303 399.79283508 267.23322937 400.87045288 267.20631409 C402.49964157 267.16446991 402.49964157 267.16446991 404.16174316 267.1217804 C406.45634801 267.06547335 408.75101996 267.01184547 411.04574585 266.96070862 C414.54645025 266.87864189 418.04611862 266.77504367 421.54623413 266.67115784 C423.77927621 266.61903796 426.01234898 266.56821401 428.24545288 266.51881409 C429.80826492 266.46748322 429.80826492 266.46748322 431.40264893 266.41511536 C438.91285483 266.28526475 443.78937066 267.04216335 449.56576538 272.19068909 C452.96496933 276.08977598 452.84408114 278.93118793 452.85189819 283.90431213 C452.8568631 284.65413864 452.861828 285.40396515 452.86694336 286.17651367 C452.88158126 288.66432099 452.88837112 291.15206447 452.89389038 293.63990784 C452.89964231 295.36905926 452.90540004 297.09821067 452.91116333 298.82736206 C452.92167919 302.45815834 452.92751742 306.08893245 452.93099976 309.71974182 C452.93647318 314.36231774 452.96047392 319.00459869 452.98897171 323.64708233 C453.0076414 327.22197306 453.01280608 330.79679354 453.01433563 334.3717289 C453.01735501 336.08247801 453.02535932 337.79322609 453.03852081 339.50392723 C453.05566546 341.90454021 453.05368037 344.30444323 453.04721069 346.70509338 C453.05642548 347.40614197 453.06564026 348.10719055 453.07513428 348.82948303 C453.02881658 354.34384372 451.85501376 359.11450477 448.19076538 363.37037659 C443.00226792 367.28877311 439.33220537 367.76751095 433.00326538 367.69068909 C432.30137085 367.68617737 431.59947632 367.68166565 430.87631226 367.67701721 C429.14776 367.66525835 427.41925173 367.64732362 425.69076538 367.62818909 C425.74297241 369.14799377 425.74297241 369.14799377 425.79623413 370.69850159 C425.82439133 372.05004738 425.85168941 373.40161127 425.87826538 374.75318909 C425.91597046 375.75092346 425.91597046 375.75092346 425.95443726 376.76881409 C426.03474799 382.22994407 424.88437303 386.1654989 421.22592163 390.27272034 C415.7938115 394.58094561 412.29553789 394.7541592 405.44076538 394.69068909 C404.17748413 394.68166565 402.91420288 394.67264221 401.61264038 394.66334534 C400.64842163 394.65174377 399.68420288 394.64014221 398.69076538 394.62818909 C398.73717163 395.71357971 398.78357788 396.79897034 398.83139038 397.91725159 C398.86893025 399.3625364 398.90532802 400.80785119 398.94076538 402.25318909 C398.99103882 403.32246643 398.99103882 403.32246643 399.04232788 404.41334534 C399.13806386 409.63095618 398.21919179 412.55063671 394.69076538 416.62818909 C389.51446365 421.32261288 384.9361808 421.12373944 378.31576538 420.87818909 C377.38892944 420.86014221 376.46209351 420.84209534 375.50717163 420.82350159 C373.23395103 420.77663106 370.96291131 420.71104434 368.69076538 420.62818909 C369.02076538 421.61818909 369.35076538 422.60818909 369.69076538 423.62818909 C370.60057763 439.23496841 368.56412093 453.41150495 361.69076538 467.62818909 C361.02754272 469.03197815 361.02754272 469.03197815 360.35092163 470.46412659 C356.78445372 477.5180271 352.18718421 482.98793873 346.69076538 488.62818909 C345.86576538 489.51506409 345.04076538 490.40193909 344.19076538 491.31568909 C326.03231768 508.11225321 305.48281393 513.65615732 281.10873413 513.00318909 C263.87434206 512.20402875 247.65691408 504.94178942 234.69076538 493.62818909 C233.72267944 492.85732971 232.75459351 492.08647034 231.75717163 491.29225159 C217.11245015 479.07225921 208.80933848 459.15571046 206.69076538 440.62818909 C205.80995229 426.49545672 207.00312476 413.20264082 212.80795288 400.17506409 C213.08566528 399.54003967 213.36337769 398.90501526 213.64950562 398.25074768 C214.32510159 396.70777364 215.0072377 395.16766586 215.69076538 393.62818909 C214.47100667 393.63187626 213.25124796 393.63556343 211.99452686 393.63936234 C183.00073332 393.72610643 154.00694479 393.79200744 125.01305206 393.8324504 C121.43972125 393.83745287 117.86639071 393.8426302 114.2930603 393.84791565 C113.58171341 393.84896489 112.87036651 393.85001413 112.13746365 393.85109517 C100.63901946 393.86847186 89.14065576 393.89999435 77.64225922 393.93680027 C65.83244187 393.97428607 54.0226665 393.99644103 42.2127921 394.00454307 C35.58415363 394.00952565 28.95566449 394.02195044 22.32708168 394.05110931 C16.08169033 394.07835867 9.83655538 394.08661475 3.59111023 394.08061981 C1.30511263 394.08171578 -0.98089398 394.08961247 -3.26683998 394.10501099 C-20.83412313 394.2174934 -34.78087209 393.27669616 -48.30532837 380.78443909 C-55.97786574 372.73239986 -59.43169517 363.02483105 -59.54751587 352.08131409 C-59.55558762 351.35128174 -59.56365936 350.62124939 -59.57197571 349.86909485 C-59.58577789 348.32592618 -59.59651726 346.78272747 -59.60440063 345.23951721 C-59.61590473 343.67236796 -59.63633193 342.10525741 -59.66592407 340.53834534 C-59.9951591 323.08704956 -59.9951591 323.08704956 -53.41470337 315.42115784 C-47.23432385 310.24776479 -42.60422579 307.4306893 -34.30923462 307.62818909 C-34.31094336 306.72556433 -34.31094336 306.72556433 -34.31268662 305.80470473 C-34.3798376 270.13103213 -34.43130276 234.45737041 -34.46243061 198.78364775 C-34.46618268 194.49916207 -34.47006565 190.21467653 -34.47402954 185.93019104 C-34.47481647 185.07723601 -34.4756034 184.22428098 -34.47641418 183.34547883 C-34.48946401 169.53903848 -34.51311553 155.73263566 -34.54069301 141.92621756 C-34.56875897 127.75695096 -34.5854134 113.58770398 -34.5915001 99.41841072 C-34.59561407 90.67694131 -34.6086024 81.93557796 -34.63298402 73.1941412 C-34.6488559 67.19779611 -34.65363169 61.20150576 -34.64973875 55.20514119 C-34.64781946 51.74682346 -34.65073786 48.2886909 -34.66685104 44.83040619 C-34.68178594 41.07617189 -34.67818401 37.32239063 -34.66999817 33.56814575 C-34.67873669 32.48155011 -34.68747522 31.39495447 -34.69647855 30.27543169 C-34.64495552 21.52742197 -33.35281217 13.71304064 -27.13395441 7.18530554 C-18.95136425 0.20272891 -10.34463329 -0.08960945 0 0 Z M265.94076538 436.37818909 C264.18602959 439.53671351 263.81512518 442.0217549 263.69076538 445.62818909 C265.32866354 450.26890054 267.38623054 453.19519113 271.69076538 455.62818909 C275.52316768 456.38616884 279.00524522 456.49951731 282.53451538 454.67506409 C285.79026253 452.153456 287.83039776 449.64323797 288.69076538 445.62818909 C288.50174951 440.33574465 287.44406706 437.38149077 283.69076538 433.62818909 C277.5853419 429.20702036 270.84933994 431.46961452 265.94076538 436.37818909 Z " fill="#00BBD3" transform="translate(59.309234619140625,-0.6281890869140625)"/>
<path d="M0 0 C1.54148793 -0.00505157 3.08296997 -0.0122851 4.62443864 -0.02149814 C8.83938666 -0.0403604 13.05375146 -0.02822108 17.26868439 -0.01077521 C21.82224536 0.00262789 26.37572265 -0.01284873 30.92927551 -0.02459717 C39.84083231 -0.0429553 48.75216952 -0.03447403 57.66371943 -0.01650894 C64.90646809 -0.00247267 72.14915722 0.00140764 79.39191818 -0.00195122 C80.93923577 -0.00266738 80.93923577 -0.00266738 82.5178123 -0.00339801 C84.61347213 -0.00442436 86.70913194 -0.00547972 88.80479173 -0.00656378 C107.32607163 -0.01512692 125.84724563 0.00153261 144.36849976 0.03126526 C162.33696947 0.06011007 180.30528667 0.06718173 198.27377319 0.05177307 C217.84769512 0.03501065 237.42154468 0.03097649 256.9954685 0.04848343 C259.08272703 0.0503278 261.16998556 0.05216253 263.25724411 0.0539875 C264.79765044 0.05535564 264.79765044 0.05535564 266.3691761 0.05675141 C273.60362926 0.0623559 280.83804707 0.05905052 288.07249832 0.05244255 C296.88813182 0.04470986 305.70361521 0.05145994 314.51921846 0.07661759 C319.01644573 0.08911311 323.5134393 0.09525844 328.01067543 0.08407593 C332.12867702 0.07402971 336.24621268 0.08250109 340.3641576 0.10565711 C341.85254323 0.11081311 343.34097067 0.10926043 344.82933803 0.10026246 C352.8873693 0.05560559 358.8259448 0.21765796 365.69076538 4.62818909 C366.57764038 5.18506409 367.46451538 5.74193909 368.37826538 6.31568909 C376.06819199 14.0056157 376.83852662 22.46913079 376.84898376 32.7963562 C376.85392174 33.82968352 376.85885972 34.86301084 376.86394733 35.92765111 C376.87932134 39.39464196 376.88768274 42.8616143 376.89608765 46.32862854 C376.90566624 48.81209476 376.91567631 51.29555934 376.92608643 53.77902222 C376.94753614 59.12807996 376.96598003 64.47713518 376.98169136 69.82621193 C377.00441244 77.56005934 377.03255215 85.29387957 377.06201064 93.0277039 C377.10965912 105.57559126 377.15293073 118.12348973 377.19345093 130.67140198 C377.23281982 142.85988734 377.27424939 155.04836283 377.31845093 167.23683167 C377.3211752 167.98824093 377.32389947 168.7396502 377.3267063 169.51382945 C377.34038601 173.28346235 377.35410623 177.05309511 377.36784661 180.8227278 C377.48176827 212.09119451 377.58851424 243.35968193 377.69076538 274.62818909 C378.16565741 274.20503206 378.64054945 273.78187502 379.12983215 273.34589505 C379.75585929 272.79677292 380.38188642 272.24765078 381.02688408 271.68188858 C381.64615111 271.13498155 382.26541815 270.58807452 382.90345085 270.02459455 C385.16054656 268.2611552 386.84383939 267.79677077 389.69076538 267.62818909 C390.50004486 267.56931519 391.30932434 267.51044128 392.14312744 267.44978333 C392.99915558 267.42519043 393.85518372 267.40059753 394.7371521 267.3752594 C395.7152182 267.3456311 396.6932843 267.31600281 397.70098877 267.28547668 C398.74691193 267.25935303 399.79283508 267.23322937 400.87045288 267.20631409 C402.49964157 267.16446991 402.49964157 267.16446991 404.16174316 267.1217804 C406.45634801 267.06547335 408.75101996 267.01184547 411.04574585 266.96070862 C414.54645025 266.87864189 418.04611862 266.77504367 421.54623413 266.67115784 C423.77927621 266.61903796 426.01234898 266.56821401 428.24545288 266.51881409 C429.80826492 266.46748322 429.80826492 266.46748322 431.40264893 266.41511536 C438.91285483 266.28526475 443.78937066 267.04216335 449.56576538 272.19068909 C452.96496933 276.08977598 452.84408114 278.93118793 452.85189819 283.90431213 C452.8568631 284.65413864 452.861828 285.40396515 452.86694336 286.17651367 C452.88158126 288.66432099 452.88837112 291.15206447 452.89389038 293.63990784 C452.89964231 295.36905926 452.90540004 297.09821067 452.91116333 298.82736206 C452.92167919 302.45815834 452.92751742 306.08893245 452.93099976 309.71974182 C452.93647318 314.36231774 452.96047392 319.00459869 452.98897171 323.64708233 C453.0076414 327.22197306 453.01280608 330.79679354 453.01433563 334.3717289 C453.01735501 336.08247801 453.02535932 337.79322609 453.03852081 339.50392723 C453.05566546 341.90454021 453.05368037 344.30444323 453.04721069 346.70509338 C453.05642548 347.40614197 453.06564026 348.10719055 453.07513428 348.82948303 C453.02881658 354.34384372 451.85501376 359.11450477 448.19076538 363.37037659 C443.00226792 367.28877311 439.33220537 367.76751095 433.00326538 367.69068909 C432.30137085 367.68617737 431.59947632 367.68166565 430.87631226 367.67701721 C429.14776 367.66525835 427.41925173 367.64732362 425.69076538 367.62818909 C425.74297241 369.14799377 425.74297241 369.14799377 425.79623413 370.69850159 C425.82439133 372.05004738 425.85168941 373.40161127 425.87826538 374.75318909 C425.91597046 375.75092346 425.91597046 375.75092346 425.95443726 376.76881409 C426.03474799 382.22994407 424.88437303 386.1654989 421.22592163 390.27272034 C415.7938115 394.58094561 412.29553789 394.7541592 405.44076538 394.69068909 C404.17748413 394.68166565 402.91420288 394.67264221 401.61264038 394.66334534 C400.64842163 394.65174377 399.68420288 394.64014221 398.69076538 394.62818909 C398.73717163 395.71357971 398.78357788 396.79897034 398.83139038 397.91725159 C398.86893025 399.3625364 398.90532802 400.80785119 398.94076538 402.25318909 C398.99103882 403.32246643 398.99103882 403.32246643 399.04232788 404.41334534 C399.13806386 409.63095618 398.21919179 412.55063671 394.69076538 416.62818909 C389.51446365 421.32261288 384.9361808 421.12373944 378.31576538 420.87818909 C377.38892944 420.86014221 376.46209351 420.84209534 375.50717163 420.82350159 C373.23395103 420.77663106 370.96291131 420.71104434 368.69076538 420.62818909 C369.02076538 421.61818909 369.35076538 422.60818909 369.69076538 423.62818909 C370.60057763 439.23496841 368.56412093 453.41150495 361.69076538 467.62818909 C361.02754272 469.03197815 361.02754272 469.03197815 360.35092163 470.46412659 C356.78445372 477.5180271 352.18718421 482.98793873 346.69076538 488.62818909 C345.86576538 489.51506409 345.04076538 490.40193909 344.19076538 491.31568909 C326.03231768 508.11225321 305.48281393 513.65615732 281.10873413 513.00318909 C263.87434206 512.20402875 247.65691408 504.94178942 234.69076538 493.62818909 C233.72267944 492.85732971 232.75459351 492.08647034 231.75717163 491.29225159 C217.11245015 479.07225921 208.80933848 459.15571046 206.69076538 440.62818909 C205.80995229 426.49545672 207.00312476 413.20264082 212.80795288 400.17506409 C213.08566528 399.54003967 213.36337769 398.90501526 213.64950562 398.25074768 C214.32510159 396.70777364 215.0072377 395.16766586 215.69076538 393.62818909 C214.47100667 393.63187626 213.25124796 393.63556343 211.99452686 393.63936234 C183.00073332 393.72610643 154.00694479 393.79200744 125.01305206 393.8324504 C121.43972125 393.83745287 117.86639071 393.8426302 114.2930603 393.84791565 C113.58171341 393.84896489 112.87036651 393.85001413 112.13746365 393.85109517 C100.63901946 393.86847186 89.14065576 393.89999435 77.64225922 393.93680027 C65.83244187 393.97428607 54.0226665 393.99644103 42.2127921 394.00454307 C35.58415363 394.00952565 28.95566449 394.02195044 22.32708168 394.05110931 C16.08169033 394.07835867 9.83655538 394.08661475 3.59111023 394.08061981 C1.30511263 394.08171578 -0.98089398 394.08961247 -3.26683998 394.10501099 C-20.83412313 394.2174934 -34.78087209 393.27669616 -48.30532837 380.78443909 C-55.97786574 372.73239986 -59.43169517 363.02483105 -59.54751587 352.08131409 C-59.55558762 351.35128174 -59.56365936 350.62124939 -59.57197571 349.86909485 C-59.58577789 348.32592618 -59.59651726 346.78272747 -59.60440063 345.23951721 C-59.61590473 343.67236796 -59.63633193 342.10525741 -59.66592407 340.53834534 C-59.9951591 323.08704956 -59.9951591 323.08704956 -53.41470337 315.42115784 C-47.23432385 310.24776479 -42.60422579 307.4306893 -34.30923462 307.62818909 C-34.31094336 306.72556433 -34.31094336 306.72556433 -34.31268662 305.80470473 C-34.3798376 270.13103213 -34.43130276 234.45737041 -34.46243061 198.78364775 C-34.46618268 194.49916207 -34.47006565 190.21467653 -34.47402954 185.93019104 C-34.47481647 185.07723601 -34.4756034 184.22428098 -34.47641418 183.34547883 C-34.48946401 169.53903848 -34.51311553 155.73263566 -34.54069301 141.92621756 C-34.56875897 127.75695096 -34.5854134 113.58770398 -34.5915001 99.41841072 C-34.59561407 90.67694131 -34.6086024 81.93557796 -34.63298402 73.1941412 C-34.6488559 67.19779611 -34.65363169 61.20150576 -34.64973875 55.20514119 C-34.64781946 51.74682346 -34.65073786 48.2886909 -34.66685104 44.83040619 C-34.68178594 41.07617189 -34.67818401 37.32239063 -34.66999817 33.56814575 C-34.67873669 32.48155011 -34.68747522 31.39495447 -34.69647855 30.27543169 C-34.64495552 21.52742197 -33.35281217 13.71304064 -27.13395441 7.18530554 C-18.95136425 0.20272891 -10.34463329 -0.08960945 0 0 Z M-16.30923462 22.62818909 C-17.03841379 25.07852567 -17.03841379 25.07852567 -16.92447376 27.69437885 C-16.934429 28.69710183 -16.94438425 29.69982482 -16.95464116 30.73293334 C-16.94007696 31.8272894 -16.92551275 32.92164546 -16.9105072 34.04916382 C-16.91477933 35.21724837 -16.91905145 36.38533291 -16.92345303 37.58881396 C-16.93026407 40.82733889 -16.91464368 44.06486273 -16.88956273 47.30326927 C-16.86796735 50.79673775 -16.87527748 54.29015969 -16.8790741 57.78367615 C-16.88169569 63.83512236 -16.86601032 69.88629898 -16.8378849 75.93767738 C-16.79724698 84.6869034 -16.78422741 93.43599909 -16.77794494 102.18530925 C-16.7670022 116.38045442 -16.73372859 130.57545591 -16.68643188 144.77052307 C-16.64053575 158.55957826 -16.60514412 172.34859442 -16.58389282 186.13771057 C-16.5825792 186.98769069 -16.58126559 187.83767082 -16.57991216 188.71340791 C-16.57338697 192.9775148 -16.56706843 197.24162197 -16.56085265 201.50572932 C-16.50902026 236.879985 -16.42095556 272.25407379 -16.30923462 307.62818909 C29.73036825 307.9029435 75.76988424 308.11434928 121.81014554 308.24097304 C127.24740428 308.25598126 132.6846614 308.27151315 138.12191772 308.28736877 C139.20436316 308.2905165 140.2868086 308.29366422 141.40205541 308.29690734 C158.92171985 308.34910252 176.44091108 308.44370544 193.96029493 308.55402264 C211.94108067 308.66629968 229.92161882 308.73290666 247.90274072 308.75725102 C258.99554788 308.77370491 270.08701747 308.825641 281.17941281 308.92318669 C288.78921766 308.98669185 296.39833257 309.00577436 304.00838307 308.99020562 C308.39751411 308.98252957 312.78431089 308.99416602 317.17302513 309.05865479 C321.19770647 309.1173604 325.21850117 309.11982358 329.24336722 309.07897583 C330.69317889 309.07393381 332.14323998 309.08891745 333.59256575 309.12678728 C340.88241568 309.30607235 346.33842648 308.60035775 351.93872406 303.8334014 C357.13546705 298.80603326 360.05690539 294.38531371 360.25838947 286.95260143 C360.22616385 285.92805512 360.19393824 284.90350882 360.16073608 283.84791565 C360.17381145 282.72567502 360.18688681 281.60343439 360.20035839 280.44718647 C360.22929528 276.71880158 360.17307376 272.99680603 360.11654663 269.26881409 C360.11971303 266.58375725 360.12761463 263.89909583 360.1413269 261.21411133 C360.1637637 254.70049508 360.12280103 248.18877619 360.06017506 241.67548305 C359.9897793 234.08727891 359.98433331 226.49943494 359.9817127 218.91095531 C359.97497386 205.37504802 359.9118658 191.84000182 359.81576538 178.30445862 C359.72259869 165.17254994 359.66604452 152.04118727 359.65170288 138.90895081 C359.65036628 137.69389756 359.65036628 137.69389756 359.64900267 136.45429778 C359.64723226 134.82243129 359.64546416 133.19056479 359.64369839 131.5586983 C359.642381 130.35120033 359.642381 130.35120033 359.64103699 129.11930847 C359.64017304 128.31632808 359.6393091 127.51334769 359.63841897 126.68603456 C359.62362249 114.16125596 359.57819701 101.63656519 359.5285154 89.11188304 C359.51077821 84.57411282 359.49702377 80.03635083 359.48602688 75.49855953 C359.46830637 68.30675752 359.43723887 61.11528023 359.37892926 53.92368323 C359.35249306 50.63804536 359.33433815 47.35274955 359.3290863 44.06699944 C359.32212057 40.50843797 359.29063947 36.95093765 359.25253296 33.39259338 C359.25599889 32.3502013 359.25946482 31.30780922 359.26303577 30.2338295 C359.25899814 24.74824815 359.25899814 24.74824815 356.78065491 20.01791382 C353.18943653 17.62984262 351.09091129 17.50030252 346.77391338 17.4911747 C345.50505879 17.48610016 344.2362042 17.48102561 342.92889947 17.4757973 C341.50761779 17.47519557 340.08633607 17.4746965 338.66505432 17.47428894 C337.16546318 17.47027588 335.66587312 17.46583792 334.16628438 17.46100938 C330.03028406 17.44902081 325.89429542 17.44339017 321.75828111 17.43882823 C317.30350181 17.43288086 312.84873653 17.42126895 308.39396667 17.41053772 C297.62865286 17.38599516 286.8633344 17.37138453 276.09800121 17.35847765 C273.05909498 17.35476729 270.0201892 17.35079394 266.98128343 17.34672499 C248.1230081 17.32149177 229.26473208 17.29943171 210.4064436 17.28699684 C206.03661789 17.28406699 201.6667922 17.28110535 197.29696655 17.27809143 C196.21082533 17.27734538 195.12468411 17.27659933 194.00562952 17.27583067 C176.40073362 17.26317013 158.79593856 17.22993864 141.19108983 17.1882896 C123.13001348 17.14591028 105.06898882 17.1223065 87.00786287 17.11707628 C76.86170678 17.11365778 66.71570831 17.1018509 56.56960106 17.06897354 C47.93083192 17.04102691 39.29225271 17.02994997 30.65344187 17.041169 C26.24365151 17.04636937 21.83425921 17.04338 17.42452621 17.01870346 C13.38958061 16.99631207 9.35532132 16.99687116 5.32036451 17.01590733 C3.85869366 17.01872163 2.39697726 17.0130298 0.93538 16.99809439 C-1.04794583 16.97906269 -3.03151006 16.99373287 -5.0148592 17.01015663 C-6.11762205 17.0088001 -7.22038491 17.00744357 -8.35656482 17.00604594 C-12.3499394 17.84747109 -13.84097466 19.43160266 -16.30923462 22.62818909 Z M265.94076538 436.37818909 C264.18602959 439.53671351 263.81512518 442.0217549 263.69076538 445.62818909 C265.32866354 450.26890054 267.38623054 453.19519113 271.69076538 455.62818909 C275.52316768 456.38616884 279.00524522 456.49951731 282.53451538 454.67506409 C285.79026253 452.153456 287.83039776 449.64323797 288.69076538 445.62818909 C288.50174951 440.33574465 287.44406706 437.38149077 283.69076538 433.62818909 C277.5853419 429.20702036 270.84933994 431.46961452 265.94076538 436.37818909 Z " fill="#000101" transform="translate(59.309234619140625,-0.6281890869140625)"/>
<path d="M0 0 C1.09181193 -0.00657338 1.09181193 -0.00657338 2.20568067 -0.01327956 C4.65139003 -0.02666335 7.09706335 -0.03284548 9.5428009 -0.03897095 C11.29378929 -0.04687228 13.04477606 -0.05514126 14.79576111 -0.06375122 C20.55232692 -0.08996901 26.30889999 -0.10527923 32.06550598 -0.11953735 C34.04741737 -0.12489725 36.02932871 -0.13027476 38.01124001 -0.13566971 C46.25600015 -0.15729862 54.50075833 -0.17603497 62.74553967 -0.1872921 C74.55961013 -0.20352884 86.37335157 -0.23669989 98.187298 -0.29369295 C106.49484581 -0.33240318 114.80230567 -0.35192612 123.1099413 -0.35721266 C128.07121787 -0.3608648 133.03214349 -0.37287142 137.99332237 -0.4053154 C142.66294296 -0.43541479 147.33200061 -0.44170119 152.00169754 -0.42993164 C153.71250953 -0.42971106 155.42334778 -0.43800346 157.13406944 -0.45558548 C173.90576183 -0.61852899 173.90576183 -0.61852899 179.89753723 5.15390015 C184.29982076 9.89482086 185.02144037 13.25074859 185.05143738 19.61097717 C185.05801076 20.59865852 185.05801076 20.59865852 185.06471694 21.60629302 C185.07809259 23.81707057 185.08428102 26.02780827 185.09040833 28.23861694 C185.09831033 29.82211995 185.10657934 31.40562116 185.1151886 32.98912048 C185.14139948 38.19376915 185.15671628 43.39842582 185.17097473 48.6031189 C185.17633498 50.39558225 185.18171249 52.18804555 185.18710709 53.9805088 C185.2087353 61.43777488 185.22747122 68.8950388 185.23872948 76.3523283 C185.2549635 87.03484163 185.28812855 97.71699093 185.34513032 108.39936703 C185.38385378 115.91286621 185.40336507 123.42626812 185.40865004 130.93986446 C185.41230049 135.42608046 185.42428876 139.91190813 185.45675278 144.39801598 C185.48687555 148.62115161 185.49313046 152.84366479 185.48136902 157.06688499 C185.48114863 158.61321841 185.48942529 160.15958106 185.50702286 161.70581436 C185.66396933 176.29537597 185.66396933 176.29537597 181.45419312 181.59608936 C180.68364845 182.3672057 180.68364845 182.3672057 179.89753723 183.15390015 C179.15268822 183.9268179 179.15268822 183.9268179 178.39279175 184.71535015 C171.80362854 190.04810087 162.65287312 188.83629252 154.65290833 188.76913452 C152.89793359 188.77263873 151.14296205 188.7783007 149.38800049 188.78594971 C144.63801052 188.80016211 139.8886019 188.78317227 135.13866758 188.75966454 C130.16202256 188.73951712 125.18540076 188.74543701 120.20872498 188.74777222 C111.85457298 188.7477187 103.50064756 188.72799056 95.14656067 188.69589233 C85.49207398 188.65897772 75.83788372 188.65022067 66.18333566 188.65718985 C56.8874737 188.66349695 47.59171322 188.65273825 38.29587173 188.63322449 C34.34305499 188.62505612 30.39029015 188.62233989 26.43746567 188.62391663 C21.78342349 188.62479618 17.12966261 188.61056031 12.47569466 188.58469009 C10.76891125 188.57753455 9.0620979 188.57544173 7.35530281 188.57880783 C5.02348561 188.58252913 2.69248641 188.56775351 0.36076355 188.54830933 C-0.9433227 188.54458061 -2.24740894 188.5408519 -3.59101295 188.53701019 C-9.04834149 187.94159875 -12.95972286 185.90077184 -16.41496277 181.65390015 C-16.90609558 181.06608765 -17.39722839 180.47827515 -17.90324402 179.87265015 C-20.41867623 176.26747042 -20.23437739 172.89893337 -20.24963379 168.645401 C-20.25331048 167.98145209 -20.25698717 167.31750317 -20.26077527 166.63343459 C-20.27180606 164.40416465 -20.27565489 162.17494134 -20.27946472 159.94564819 C-20.28572977 158.34904838 -20.29237661 156.75245003 -20.29937744 155.15585327 C-20.32041311 149.9091188 -20.33077849 144.66238405 -20.34074402 139.4156189 C-20.34479158 137.60948992 -20.3489085 135.8033611 -20.3530941 133.99723244 C-20.37214368 125.51299053 -20.38637592 117.02875732 -20.39470607 108.54449815 C-20.40448189 98.74952853 -20.43081132 88.95478469 -20.47120696 79.15989465 C-20.50135758 71.58952507 -20.51617389 64.01922026 -20.51948708 56.4487918 C-20.52183854 51.92693269 -20.53081152 47.40531486 -20.55594826 42.88352013 C-20.57921599 38.6292628 -20.58346756 34.37540583 -20.57318687 30.12110138 C-20.5726911 28.56103751 -20.57902377 27.00095402 -20.59274292 25.44095039 C-20.61044952 23.30793785 -20.60336372 21.17636416 -20.59020996 19.04335022 C-20.59259831 17.85075938 -20.59498667 16.65816854 -20.5974474 15.42943859 C-19.59339613 8.78517463 -15.22343451 4.96738974 -10.10246277 1.15390015 C-6.56039843 -0.02678797 -3.74051085 0.01594921 0 0 Z " fill="#000102" transform="translate(148.1024627685547,33.846099853515625)"/>
<path d="M0 0 C1.2777832 0.00523682 2.55556641 0.01047363 3.87207031 0.01586914 C4.56536438 0.01728409 5.25865845 0.01869904 5.97296143 0.02015686 C8.13208826 0.02564037 10.29110121 0.03816786 12.45019531 0.05102539 C13.93717295 0.05605554 15.42415226 0.06061574 16.91113281 0.06469727 C20.50752237 0.07557107 24.10384769 0.09275019 27.70019531 0.11352539 C27.90030021 21.7915555 27.28818158 43.44560578 26.70019531 65.11352539 C25.61480469 65.13930664 24.52941406 65.16508789 23.41113281 65.19165039 C21.96578183 65.24796277 20.52047088 65.30530939 19.07519531 65.36352539 C18.36234375 65.37770508 17.64949219 65.39188477 16.91503906 65.40649414 C11.78567389 65.64178612 8.79962357 66.79352288 4.70019531 70.11352539 C0.68104054 74.82052209 0.06832612 78.54976758 -0.04980469 84.48852539 C-0.07945312 85.22458008 -0.10910156 85.96063477 -0.13964844 86.71899414 C-0.20968502 88.51659969 -0.25708587 90.31506329 -0.29980469 92.11352539 C-1.38519531 92.13930664 -2.47058594 92.16508789 -3.58886719 92.19165039 C-5.03421817 92.24796277 -6.47952912 92.30530939 -7.92480469 92.36352539 C-8.63765625 92.37770508 -9.35050781 92.39188477 -10.08496094 92.40649414 C-16.14420668 92.68444119 -19.61738127 94.66559954 -24.13183594 98.78540039 C-25.99311117 102.49550086 -25.87527454 106.26642273 -25.98730469 110.36352539 C-26.02146484 111.20399414 -26.055625 112.04446289 -26.09082031 112.91040039 C-26.17304037 114.97764743 -26.23810625 117.04556413 -26.29980469 119.11352539 C-26.90453613 119.12287109 -27.50926758 119.1322168 -28.13232422 119.1418457 C-30.89728349 119.19584261 -33.66060375 119.27942933 -36.42480469 119.36352539 C-37.37613281 119.37770508 -38.32746094 119.39188477 -39.30761719 119.40649414 C-45.07448094 119.60673247 -48.84334906 120.08744398 -53.29980469 124.11352539 C-56.07876881 127.93940198 -56.64993617 130.49565075 -56.52246094 135.19165039 C-56.49442383 136.93381836 -56.49442383 136.93381836 -56.46582031 138.71118164 C-56.43166016 139.91645508 -56.3975 141.12172852 -56.36230469 142.36352539 C-55.84713932 162.5974671 -61.04564174 178.34563319 -75.11230469 193.36352539 C-88.68479722 206.22720303 -106.21510298 211.69782145 -124.58886719 211.38696289 C-140.89747026 210.72197746 -155.04855892 202.48446526 -166.29980469 191.11352539 C-166.92371094 190.52313477 -167.54761719 189.93274414 -168.19042969 189.32446289 C-179.95891142 177.29092526 -183.68597767 161.61090417 -183.59887695 145.35791016 C-183.18932549 127.45541372 -177.03612789 113.69848313 -164.29980469 101.11352539 C-163.61273438 100.40454102 -162.92566406 99.69555664 -162.21777344 98.96508789 C-150.00409429 87.13662682 -134.59199926 82.71538011 -117.99902344 82.91040039 C-114.67950375 83.09267602 -111.56302397 83.50426804 -108.29980469 84.11352539 C-103.04252963 84.88575722 -103.04252963 84.88575722 -98.41747665 82.80609703 C-97.79226246 82.23219042 -97.16704826 81.65828381 -96.52288818 81.06698608 C-95.8258654 80.42856152 -95.12884262 79.79013695 -94.41069794 79.13236618 C-91.07237043 75.93961745 -87.82066921 72.67458977 -84.60546875 69.3581543 C-83.10842589 67.82483617 -81.61120514 66.2916917 -80.11383057 64.75869751 C-79.33239937 63.95692707 -78.55096817 63.15515663 -77.74585724 62.32909012 C-72.69439232 57.15588204 -67.61231495 52.01269131 -62.53699112 46.86290932 C-58.08969017 42.3468486 -53.65282607 37.82135009 -49.23632812 33.27514648 C-44.945831 28.85984989 -40.62878846 24.47213567 -36.29265594 20.1016655 C-34.65140425 18.43765479 -33.01997836 16.76389063 -31.39893341 15.08018875 C-17.13935757 0.28742195 -17.13935757 0.28742195 -9.71582031 -0.41015625 C-4.86333413 -0.03350986 -4.86333413 -0.03350986 0 0 Z M-142.04980469 151.86352539 C-143.80454048 155.02204981 -144.17544489 157.5070912 -144.29980469 161.11352539 C-142.66190653 165.75423684 -140.60433953 168.68052744 -136.29980469 171.11352539 C-132.46740239 171.87150514 -128.98532485 171.98485361 -125.45605469 170.16040039 C-122.20030754 167.6387923 -120.16017231 165.12857427 -119.29980469 161.11352539 C-119.48882056 155.82108096 -120.54650301 152.86682707 -124.29980469 149.11352539 C-130.40522817 144.69235667 -137.14123013 146.95495083 -142.04980469 151.86352539 Z " fill="#FDDD00" transform="translate(467.2998046875,283.886474609375)"/>
<path d="M0 0 C56.43 0 112.86 0 171 0 C171 50.82 171 101.64 171 154 C165.06 154 159.12 154 153 154 C152.938125 151.999375 152.87625 149.99875 152.8125 147.9375 C151.561591 131.16855774 143.91881051 114.79186906 131.296875 103.47265625 C129.88917484 102.28532037 128.44806158 101.13776267 127 100 C127.7050732 96.62515523 128.96844001 93.73748912 130.4375 90.625 C136.06120329 78.70610647 137.76131747 63.57982368 133.4375 50.8125 C132.34875185 48.35388567 132.34875185 48.35388567 131 46 C130.50242187 45.071875 130.00484375 44.14375 129.4921875 43.1875 C122.08853076 30.51519451 111.51114712 24.06950914 98 19 C84.22292533 16.18835211 70.80667324 18.09937325 58.66796875 25.2109375 C46.45979267 33.39738646 38.23698163 44.87825948 35.35546875 59.43359375 C33.5508732 72.46237697 35.77071517 85.16042171 43.2421875 96.1328125 C44 98 44 98 43.35546875 100.0625 C41.89419386 102.15123874 40.47458228 103.35233244 38.4375 104.875 C25.63645452 115.69409855 18.96803353 133.49358052 17.3125 149.75 C17.209375 151.1525 17.10625 152.555 17 154 C11.39 154 5.78 154 0 154 C0 103.18 0 52.36 0 0 Z " fill="#01A7F1" transform="translate(145,51)"/>
<path d="M0 0 C0.97249695 -0.03172302 1.9449939 -0.06344604 2.94696045 -0.09613037 C4.01802032 -0.12552704 5.0890802 -0.15492371 6.19259644 -0.18521118 C7.31810913 -0.21908936 8.44362183 -0.25296753 9.60324097 -0.28787231 C20.02655561 -0.58538775 30.45208462 -0.76765788 40.87855721 -0.90862083 C47.8802863 -1.00554075 54.87666943 -1.14157618 61.87521362 -1.37759399 C68.64731258 -1.60593105 75.41403994 -1.72141917 82.189785 -1.76979446 C84.76189548 -1.80585396 87.33378195 -1.87838095 89.90375137 -1.98933029 C109.46682118 -2.79665216 109.46682118 -2.79665216 115.99504852 2.29561615 C120.7414518 7.25414343 124.28845988 12.80357319 127.78100204 18.68189621 C131.90895426 25.31077502 136.6664252 31.04180107 144.38742065 33.26156616 C148.23332529 33.79159218 152.01502848 33.8190897 155.89303589 33.79501343 C157.02091522 33.803629 158.14879456 33.81224457 159.31085205 33.82112122 C163.02280923 33.84374192 166.73400905 33.83704884 170.4460144 33.82797241 C173.03619103 33.83320973 175.62636575 33.83948661 178.21653748 33.84675598 C183.63924154 33.85715313 189.06165859 33.8529398 194.48434448 33.83798218 C200.73413628 33.82106495 206.98322939 33.83689827 213.23294491 33.86920506 C219.26863247 33.89921209 225.30396666 33.90106704 231.33973885 33.89170647 C233.89731823 33.89088801 236.45491227 33.89773106 239.01244926 33.91247749 C242.59294969 33.92995797 246.17196916 33.91534888 249.75241089 33.89266968 C251.32607674 33.91020798 251.32607674 33.91020798 252.93153381 33.92810059 C260.89556072 33.82581713 266.53787682 31.6422609 272.53829956 26.37265015 C273.01702515 25.77782837 273.49575073 25.18300659 273.98898315 24.57015991 C274.54746948 23.88421753 275.10595581 23.19827515 275.68136597 22.49154663 C278.75809862 18.4699559 281.79200741 14.42500983 284.76242065 10.32406616 C285.99874587 8.62697498 287.23569059 6.93033488 288.47335815 5.23422241 C289.27845825 4.12446045 289.27845825 4.12446045 290.099823 2.99227905 C291.38742065 1.26156616 291.38742065 1.26156616 292.38742065 0.26156616 C294.50423383 0.16734876 296.62422824 0.14413855 298.74313354 0.14804077 C299.73821678 0.14782173 299.73821678 0.14782173 300.75340271 0.14759827 C302.95566021 0.14829736 305.1578341 0.15608951 307.3600769 0.16390991 C308.88322402 0.16577411 310.40637173 0.167198 311.92951965 0.16819763 C315.94579717 0.1720227 319.96203873 0.18185288 323.978302 0.19290161 C328.07365431 0.20311597 332.16901241 0.2076953 336.26437378 0.21273804 C344.30540593 0.22347517 352.34640883 0.24055145 360.38742065 0.26156616 C360.00124573 0.70819107 359.6150708 1.15481598 359.2171936 1.61497498 C356.86532362 4.34506953 354.53424569 7.07803486 352.28292847 9.8921814 C339.46375065 25.91615367 339.46375065 25.91615367 331.1725769 28.11361694 C324.5078681 28.73279116 317.94757625 28.06007246 311.30441284 27.42953491 C295.69980337 26.53097688 278.8062184 36.35519196 267.38742065 46.26156616 C265.90242065 47.40625366 265.90242065 47.40625366 264.38742065 48.57406616 C262.29763099 50.11180546 262.29763099 50.11180546 261.38742065 52.26156616 C229.70913702 52.35287471 198.03089092 52.42363484 166.35250638 52.46582748 C162.61007524 52.47083013 158.86764437 52.47600744 155.12521362 52.48129272 C154.00766774 52.48286659 154.00766774 52.48286659 152.86754517 52.48447224 C140.81418835 52.50186346 128.76090807 52.53339404 116.70759661 52.57017735 C104.33391732 52.60762257 91.96027802 52.62980957 79.58654439 52.63792014 C71.95517697 52.64340051 64.32402591 52.66069114 56.69272511 52.69323203 C50.8347492 52.71693431 44.97688352 52.71937697 39.11885834 52.71399689 C36.72033483 52.71509576 34.321803 52.72303139 31.9233284 52.73838806 C28.64223155 52.75836239 25.3620518 52.75347749 22.08093262 52.74258423 C20.66551963 52.76006128 20.66551963 52.76006128 19.22151244 52.7778914 C10.3565846 52.69863093 2.43416539 50.07346635 -4.14382935 43.97640991 C-10.54520177 36.50246711 -10.84565059 28.29093133 -10.92507935 18.88656616 C-10.95408325 17.74961304 -10.98308716 16.61265991 -11.01296997 15.44125366 C-11.07696895 7.05246474 -11.07696895 7.05246474 -8.7180481 3.03500366 C-5.65875889 0.45816266 -3.92063259 0.12190696 0 0 Z " fill="#9B9B9B" transform="translate(27.612579345703125,323.7384338378906)"/>
<path d="M0 0 C2.08304538 -0.05418326 4.16649768 -0.09287551 6.25 -0.125 C7.99023438 -0.15980469 7.99023438 -0.15980469 9.765625 -0.1953125 C12.87728105 -0.00741056 14.46984317 0.24746018 17 2 C19.11651204 5.17476806 19.25419103 5.96317701 19.2796154 9.59916592 C19.29668913 11.02347554 19.29668913 11.02347554 19.31410778 12.4765591 C19.31646753 13.52186403 19.31882728 14.56716895 19.32125854 15.64414978 C19.33143418 16.75305606 19.34160982 17.86196234 19.35209382 19.00447184 C19.3836178 22.73987389 19.40061257 26.47519836 19.41748047 30.21069336 C19.43169449 32.201129 19.44592098 34.19156472 19.46116112 36.18199276 C19.52781623 44.89210693 19.57085854 53.60226831 19.60756081 62.31255397 C19.61715259 64.5815851 19.62711906 66.85061432 19.63717127 69.11964345 C19.69912698 83.21605345 19.75248754 97.31247998 19.78600883 111.408988 C19.79390762 114.67443305 19.80191362 117.93987782 19.81005859 121.20532227 C19.81207532 122.01691587 19.81409204 122.82850947 19.81616987 123.66469682 C19.85015377 136.79998905 19.9323358 149.93452568 20.03410457 163.06944936 C20.13778137 176.56194798 20.19590984 190.05405877 20.21040261 203.54695231 C20.21971318 211.11999471 20.24906069 218.69180098 20.3298912 226.26444817 C20.3986821 232.71696192 20.42629702 239.16801679 20.40104292 245.62087607 C20.38942776 248.9107394 20.40342718 252.19689206 20.4573822 255.48642159 C20.79536727 277.26243301 20.79536727 277.26243301 14.98807347 284.03427273 C10.09074007 288.85919671 6.13155739 290.60200096 -0.75 290.75 C-2.83966252 290.56003068 -4.9279969 290.33103008 -7 290 C-6.04270084 288.87411986 -5.08412105 287.7493285 -4.125 286.625 C-3.59132813 285.99851562 -3.05765625 285.37203125 -2.5078125 284.7265625 C-1.38567993 283.44163349 -0.20628025 282.20628025 1 281 C1.30156142 278.89898149 1.30156142 278.89898149 1.24888897 276.43906593 C1.25578716 274.98944212 1.25578716 274.98944212 1.26282471 273.51053298 C1.25768115 272.44129446 1.25253759 271.37205594 1.24723816 270.27041626 C1.24965257 269.14038567 1.25206699 268.01035508 1.25455457 266.84608114 C1.2602211 263.03356032 1.2515061 259.22120487 1.24291992 255.40869141 C1.24288581 252.68585486 1.24584932 249.96302348 1.24867249 247.2401886 C1.25372242 240.59624783 1.24806265 233.95235671 1.23882218 227.3084221 C1.22845297 219.57567105 1.22850799 211.84293081 1.22899476 204.1101741 C1.2294958 190.3139988 1.22032337 176.51784664 1.20581055 162.72167969 C1.1917278 149.32746967 1.18463951 135.93328003 1.18530273 122.5390625 C1.18534269 121.71445178 1.18538265 120.88984107 1.18542381 120.04024215 C1.18546417 119.21707367 1.18550452 118.3939052 1.1855461 117.54579222 C1.18623579 102.31031226 1.18034604 87.07484097 1.17139288 71.83936382 C1.16837455 66.44659571 1.16731308 61.05382919 1.16686058 55.66106033 C1.16617875 49.08934893 1.16171847 42.51765215 1.15252777 35.94594695 C1.14790723 32.59158645 1.14539626 29.23726063 1.14612198 25.88289452 C1.14661066 22.24975693 1.14097664 18.61668016 1.13371277 14.98355103 C1.13526137 13.91877395 1.13680997 12.85399688 1.1384055 11.75695384 C1.13518106 10.78532246 1.13195661 9.81369109 1.12863445 8.81261635 C1.12793003 7.97375912 1.1272256 7.1349019 1.12649983 6.27062476 C1.00304194 4.05460168 0.61584167 2.12709264 0 0 Z " fill="#00838F" transform="translate(399,17)"/>
<path d="M0 0 C8.58876196 5.5092815 14.1011801 12.59516767 16.39453125 22.59375 C17.52805294 34.78569837 15.7484658 44.25987116 8.01953125 53.84375 C1.43769713 60.93187905 -6.28929359 63.61522575 -15.79785156 64.04907227 C-23.80996239 64.20851292 -29.91230015 63.37098333 -36.60546875 58.59375 C-37.25902344 58.13613281 -37.91257813 57.67851562 -38.5859375 57.20703125 C-46.52746854 51.02652202 -50.65681177 42.19600111 -51.890625 32.30859375 C-52.28241427 22.65013656 -48.81720395 13.90647109 -42.60546875 6.59375 C-30.70052051 -5.14875255 -14.78842613 -7.98175923 0 0 Z " fill="#FCDEB0" transform="translate(247.60546875,89.40625)"/>
<path d="M0 0 C4.00990777 1.55222236 7.91048854 3.30377723 11.81640625 5.09765625 C22.74783986 9.61493919 38.99505664 8.43806226 49.703125 4.08984375 C50.84007812 3.55037109 50.84007812 3.55037109 52 3 C52.67546875 2.69191406 53.3509375 2.38382813 54.046875 2.06640625 C55.38766474 1.42368823 56.70023555 0.72209136 58 0 C69.69603026 8.31717707 77.85702554 19.4448019 80.7734375 33.76953125 C81.08446313 36.831525 81 39.92225039 81 43 C47.01 43 13.02 43 -22 43 C-22 28.1712533 -16.43309325 15.54009934 -6 5 C-4.05098904 3.2467801 -2.06333827 1.62119436 0 0 Z " fill="#FB9500" transform="translate(201,162)"/>
<path d="M0 0 C1.39162879 -0.00350277 2.78325357 -0.00916312 4.17486572 -0.01681519 C7.94777888 -0.03105089 11.71996214 -0.01401437 15.49280548 0.00946999 C19.44360568 0.02959349 23.394376 0.02369865 27.34521484 0.0213623 C33.97961447 0.02141586 40.61372915 0.04116299 47.24804688 0.07324219 C54.91494892 0.11013441 62.58147773 0.11891759 70.24845695 0.11194468 C77.62803048 0.10563631 85.0074762 0.1164001 92.38702393 0.13591003 C95.52567366 0.14407829 98.66425801 0.14679464 101.80291748 0.1452179 C105.49992275 0.14433802 109.19657413 0.15858243 112.89348602 0.18444443 C114.8951291 0.19500647 116.89683266 0.19093742 118.89849854 0.18643188 C120.69018463 0.20345657 120.69018463 0.20345657 122.51806641 0.2208252 C123.55412018 0.22455391 124.59017395 0.22828262 125.65762329 0.23212433 C128.92980043 0.67683202 130.82447282 1.67729463 133.4765625 3.61523438 C135.02243126 6.70697189 134.77015771 9.2095299 134.4765625 12.61523438 C132.60947745 14.98020877 131.15594819 16.27554153 128.4765625 17.61523438 C126.61285918 17.71946926 124.74541902 17.759122 122.87882996 17.76913452 C121.68849655 17.77773499 120.49816315 17.78633545 119.27175903 17.79519653 C117.30262039 17.80158646 117.30262039 17.80158646 115.29370117 17.80810547 C113.90251968 17.81600578 112.51134024 17.82427468 111.12016296 17.83288574 C106.54497233 17.85911325 101.96977249 17.87441368 97.39453125 17.88867188 C95.82023932 17.89403118 94.24594746 17.89940869 92.67165565 17.90480423 C86.1237311 17.92643366 79.57580902 17.94517092 73.02785778 17.95642662 C63.63995327 17.97266961 54.25246241 18.0058547 44.86471385 18.06282747 C38.26592378 18.10151088 31.66724443 18.12105736 25.06834394 18.12634718 C21.12600915 18.13000278 17.18411547 18.1420453 13.24190331 18.17444992 C9.53257095 18.20450314 5.82394721 18.2108528 2.11451912 18.19906616 C0.1055959 18.19873989 -1.9032834 18.22322373 -3.91204834 18.2484436 C-13.7303438 18.18031398 -13.7303438 18.18031398 -16.83256531 15.29751587 C-19.08655896 11.72193784 -19.26490699 9.76746354 -18.5234375 5.61523438 C-14.15041172 -1.30452111 -7.50162883 -0.07641934 0 0 Z " fill="#000000" transform="translate(172.5234375,238.384765625)"/>
<path d="M0 0 C6.55716296 6.32463945 9.4411583 12.28344228 9.6875 21.4375 C9.23860945 31.56490866 6.95241814 37.73996368 -0.1640625 45.1328125 C-6.9435675 50.87239343 -14.95599675 53.35379205 -23.796875 52.9140625 C-32.75304899 51.31308839 -39.36718381 46.61759504 -45.19140625 39.81640625 C-50.55648781 31.73646414 -50.78172912 23.71652258 -49.8125 14.375 C-47.56592493 6.66675132 -42.55866569 0.34022352 -35.76171875 -3.90625 C-23.50995811 -10.36668876 -10.66308476 -8.72113224 0 0 Z M-30.5625 15.125 C-32.31723579 18.28352442 -32.6881402 20.76856581 -32.8125 24.375 C-31.17460184 29.01571145 -29.11703484 31.94200205 -24.8125 34.375 C-20.9800977 35.13297975 -17.49802016 35.24632822 -13.96875 33.421875 C-10.71300285 30.90026691 -8.67286762 28.39004888 -7.8125 24.375 C-8.00151587 19.08255557 -9.05919832 16.12830168 -12.8125 12.375 C-18.91792348 7.95383127 -25.65392544 10.21642544 -30.5625 15.125 Z " fill="#020200" transform="translate(355.8125,420.625)"/>
<path d="M0 0 C44.88 0 89.76 0 136 0 C134.13767833 3.72464334 131.99240604 6.88685367 129.5 10.1875 C128.89478516 11.00637695 128.89478516 11.00637695 128.27734375 11.84179688 C125.24790737 15.87604632 125.24790737 15.87604632 123 17 C121.54642551 17.10868941 120.08809982 17.1568415 118.63056946 17.17408752 C117.7123793 17.18702347 116.79418915 17.19995941 115.84817505 17.21328735 C114.33258499 17.22674698 114.33258499 17.22674698 112.78637695 17.24047852 C111.19346581 17.25997307 111.19346581 17.25997307 109.56837463 17.27986145 C98.45821511 17.40660701 87.34729227 17.46332607 76.23657227 17.51489258 C70.96238397 17.54165272 65.68909748 17.59040385 60.4152832 17.65844727 C54.05216304 17.74034053 47.68990295 17.78306867 41.32628441 17.79795647 C38.9009234 17.81021433 36.47559126 17.83626992 34.05053139 17.87640572 C30.65286313 17.92982343 27.25859446 17.93287748 23.8605957 17.92407227 C22.86032349 17.95126343 21.86005127 17.97845459 20.82946777 18.00646973 C16.94523871 17.95463022 14.14339054 17.86631136 10.98509789 15.47337151 C6.71941164 10.77908406 3.50988595 5.26482893 0 0 Z " fill="#6D6D6D" transform="translate(162,324)"/>
<path d="M0 0 C3.61420289 2.00789049 4.76234602 3.38209966 6.25 7.25 C5.97465985 11.38010225 5.59005543 11.88744802 2.92793274 14.7827301 C2.28757395 15.48286791 1.64721516 16.18300571 0.98745155 16.90435982 C-2.0000056 20.05444176 -5.02202322 23.16150754 -8.09692383 26.22631836 C-8.7677298 26.89887665 -9.43853577 27.57143494 -10.12966919 28.26437378 C-12.31963629 30.45869765 -14.51318731 32.64939641 -16.70703125 34.83984375 C-18.23937845 36.37286528 -19.77157723 37.90603518 -21.30363464 39.43934631 C-24.50019931 42.63737916 -27.69855063 45.83361131 -30.89819336 49.02856445 C-35.0052508 53.12989607 -39.10776356 57.23573988 -43.20897388 61.34291744 C-46.36491243 64.50246069 -49.52321782 67.65962932 -52.6822567 70.81607246 C-54.1969111 72.33005885 -55.71082043 73.84479101 -57.22397804 75.36027336 C-59.33026373 77.46908717 -61.43970823 79.57468848 -63.55004883 81.67944336 C-64.49056847 82.62299934 -64.49056847 82.62299934 -65.4500885 83.58561707 C-70.72155203 88.83114838 -70.72155203 88.83114838 -75.3125 89.4375 C-79 89 -79 89 -82 86.4375 C-84 83 -84 83 -84.06040955 79.76412964 C-82.60339406 74.59217019 -79.82603294 72.01980109 -76.03344727 68.33642578 C-75.30499603 67.6054921 -74.5765448 66.87455841 -73.82601929 66.12147522 C-71.42024918 63.71478855 -68.99382779 61.33014334 -66.56640625 58.9453125 C-64.88987305 57.27743489 -63.21459141 55.60829836 -61.54051208 53.93795776 C-57.13389847 49.548566 -52.70912683 45.17791655 -48.28076172 40.81048584 C-44.66117685 37.2345447 -41.05468179 33.64556191 -37.44880772 30.0558033 C-33.15893816 25.78550796 -28.8635937 21.52074261 -24.56640625 17.2578125 C-23.74278658 16.44061863 -22.91916691 15.62342476 -22.07058907 14.78146744 C-19.74862172 12.4804098 -17.42302005 10.18310005 -15.09594727 7.88720703 C-14.40340347 7.20049423 -13.71085968 6.51378143 -12.99732971 5.80625916 C-12.36496399 5.18393906 -11.73259827 4.56161896 -11.08106995 3.92044067 C-10.25616987 3.10584727 -10.25616987 3.10584727 -9.41460514 2.27479744 C-6.42879531 -0.41592 -3.91203845 -0.38353318 0 0 Z " fill="#020200" transform="translate(477,302)"/>
<path d="M0 0 C1.26328125 0.03609375 2.5265625 0.0721875 3.828125 0.109375 C5.27445312 0.17898438 5.27445312 0.17898438 6.75 0.25 C6.7999542 4.21521085 6.83597787 8.18029631 6.85986328 12.14575195 C6.87470245 14.14736377 6.90013361 16.14888812 6.92578125 18.15039062 C6.96094772 25.13093409 6.79303846 31.55026695 4.75 38.25 C4.41742188 39.35085938 4.08484375 40.45171875 3.7421875 41.5859375 C-1.97432848 57.13645999 -12.50918543 69.56690877 -27.25 77.25 C-32.45940792 79.57004029 -37.77669589 81.6474269 -43.25 83.25 C-43.91 82.92 -44.57 82.59 -45.25 82.25 C-44.48816406 81.71632813 -43.72632813 81.18265625 -42.94140625 80.6328125 C-25.75412824 68.23050702 -14.78814847 52.3913882 -11.25 31.25 C-11.21502413 29.1656088 -11.23371478 27.0799361 -11.29296875 24.99609375 C-11.32487305 23.22008789 -11.32487305 23.22008789 -11.35742188 21.40820312 C-11.41089734 18.92355062 -11.47604227 16.43912241 -11.55273438 13.95507812 C-11.57013672 12.77236328 -11.58753906 11.58964844 -11.60546875 10.37109375 C-11.64643677 8.75352173 -11.64643677 8.75352173 -11.68823242 7.10327148 C-11.25 4.25 -11.25 4.25 -9.6809082 1.88305664 C-6.3372872 -0.36315014 -3.98795698 -0.14770211 0 0 Z " fill="#FBBF07" transform="translate(404.25,410.75)"/>
<path d="M0 0 C10.56 0 21.12 0 32 0 C32.1435884 21.68184777 31.58348317 43.32776797 31 65 C22.585 65.495 22.585 65.495 14 66 C13.71795641 61.85395919 13.45624579 57.71599346 13.24316406 53.56713867 C13.16504573 52.15923326 13.07571429 50.75190056 12.97460938 49.34545898 C12.13878636 37.55617533 12.13878636 37.55617533 14.32666016 33.6027832 C15.984375 31.765625 15.984375 31.765625 17.67089844 30.34863281 C19.42095101 28.87741566 19.42095101 28.87741566 19.125 25.3125 C18.3133175 21.9423618 18.3133175 21.9423618 15.9140625 20.33984375 C13.39198845 17.25673691 13.70759713 15.4574873 14.00390625 11.60546875 C14.12572266 10.43951172 14.12572266 10.43951172 14.25 9.25 C14.31574219 8.45722656 14.38148438 7.66445313 14.44921875 6.84765625 C14.61375416 4.89673634 14.80434482 2.94804503 15 1 C10.05 1 5.1 1 0 1 C0 0.67 0 0.34 0 0 Z " fill="#FABE07" transform="translate(463,284)"/>
<path d="M0 0 C0.98484375 -0.00257813 1.9696875 -0.00515625 2.984375 -0.0078125 C12.0167609 0.11424677 12.0167609 0.11424677 16 3.5 C17.56471233 6.62942465 17.69701958 10.11082223 17 13.5 C14.88505366 16.15597913 13.69074682 17.36687425 10.31445312 18.01757812 C9.31349609 18.02208984 8.31253906 18.02660156 7.28125 18.03125 C6.18425781 18.03640625 5.08726563 18.0415625 3.95703125 18.046875 C2.81621094 18.03140625 1.67539063 18.0159375 0.5 18 C-1.21123047 18.02320313 -1.21123047 18.02320313 -2.95703125 18.046875 C-4.05402344 18.04171875 -5.15101562 18.0365625 -6.28125 18.03125 C-7.78268555 18.02448242 -7.78268555 18.02448242 -9.31445312 18.01757812 C-12.73248374 17.35883041 -13.91570815 16.24913 -16 13.5 C-16.94411178 6.89121756 -16.94411178 6.89121756 -14.15234375 2.77734375 C-9.5340701 -0.55902991 -5.55272658 -0.15989527 0 0 Z " fill="#030303" transform="translate(119,340.5)"/>
<path d="M0 0 C22.44 0 44.88 0 68 0 C62.90429665 5.94498724 57.79501591 11.79512417 52.4375 17.5 C51.61958984 18.43070312 50.80167969 19.36140625 49.95898438 20.3203125 C43.76355738 26.81760485 43.76355738 26.81760485 38.44970703 27.3671875 C35.21629405 27.12173389 32.16253967 26.70576538 29 26 C36.21110255 17.58704702 44.16489382 9.83510618 52 2 C34.84 1.67 17.68 1.34 0 1 C0 0.67 0 0.34 0 0 Z " fill="#6D6D6D" transform="translate(320,324)"/>
<path d="M0 0 C-0.70640625 0.56460937 -1.4128125 1.12921875 -2.140625 1.7109375 C-3.08421875 2.46632813 -4.0278125 3.22171875 -5 4 C-5.94359375 4.75539063 -6.8871875 5.51078125 -7.859375 6.2890625 C-8.81328125 7.05992187 -9.7671875 7.83078125 -10.75 8.625 C-11.71421875 9.40101563 -12.6784375 10.17703125 -13.671875 10.9765625 C-16.05137684 12.78465529 -16.05137684 12.78465529 -17 15 C-99.5 15 -182 15 -267 15 C-267 14.67 -267 14.34 -267 14 C-265.16703102 13.99780016 -265.16703102 13.99780016 -263.29703236 13.99555588 C-234.29660828 13.95986206 -205.2962754 13.90363273 -176.29594632 13.82207905 C-172.72732725 13.81206146 -169.15870773 13.80221736 -165.59008789 13.79248047 C-164.87963313 13.7905391 -164.16917836 13.78859772 -163.43719467 13.78659752 C-151.93016007 13.75556745 -140.42314543 13.73859407 -128.91607688 13.72680578 C-117.11075621 13.71439941 -105.30554033 13.68690972 -93.5002858 13.64538693 C-86.86859392 13.62249476 -80.23701768 13.60709262 -73.60527992 13.60811615 C-67.36640817 13.60885951 -61.12786797 13.59103915 -54.88908195 13.55883217 C-52.59652848 13.55029648 -50.30393798 13.54860795 -48.01137543 13.55419731 C-44.8860837 13.56080336 -41.76185737 13.54299731 -38.63667297 13.51898193 C-37.72519149 13.52674235 -36.81371 13.53450277 -35.87460786 13.54249835 C-30.59448384 13.47045491 -27.87910895 12.91526314 -24 9 C-22.01123047 7.82739258 -22.01123047 7.82739258 -20.1171875 6.89453125 C-19.07884766 6.37922852 -19.07884766 6.37922852 -18.01953125 5.85351562 C-16.95798828 5.33821289 -16.95798828 5.33821289 -15.875 4.8125 C-14.80185547 4.27979492 -14.80185547 4.27979492 -13.70703125 3.73632812 C-8.90607733 1.37174615 -5.36045942 -0.14487728 0 0 Z " fill="#484848" transform="translate(306,361)"/>
<path d="M0 0 C3.6196875 0.12375 3.6196875 0.12375 7.3125 0.25 C7.3125 6.19 7.3125 12.13 7.3125 18.25 C1.3725 18.25 -4.5675 18.25 -10.6875 18.25 C-11.05242891 5.11255924 -11.05242891 5.11255924 -9.65625 1.8125 C-6.66123057 -0.56449955 -3.63670492 -0.17522552 0 0 Z " fill="#F6BB07" transform="translate(433.6875,384.75)"/>
<path d="M0 0 C-0.33 5.94 -0.66 11.88 -1 18 C-9.415 18.495 -9.415 18.495 -18 19 C-18.0825 16.6075 -18.165 14.215 -18.25 11.75 C-18.28641602 11.00331055 -18.32283203 10.25662109 -18.36035156 9.48730469 C-18.41416873 6.26001085 -18.1722741 4.27219308 -16.4375 1.53125 C-11.55258054 -1.53748146 -5.56036931 -0.2059396 0 0 Z " fill="#FDC107" transform="translate(468,358)"/>
<path d="M0 0 C3.80470451 0.7133821 5.41196019 1.67868421 8 4.5625 C9.0625 8 9.0625 8 9 11.5625 C7.23358828 14.36439446 5.96950178 16.07774911 3 17.5625 C-1.0130324 18.09757099 -2.53928033 17.89301628 -5.875 15.5 C-8 12.5625 -8 12.5625 -8.625 9.0625 C-7.67703424 3.75389177 -5.38444917 1.00958422 0 0 Z " fill="#000607" transform="translate(162,272.4375)"/>
<path d="M0 0 C2.4375 1.625 2.4375 1.625 4 4 C4.72125695 8.40768137 4.52001338 10.25937488 1.9375 13.9375 C-1.74062512 16.52001338 -3.59231863 16.72125695 -8 16 C-11.27522945 13.84524379 -11.90229594 12.3358577 -13 8.5625 C-13 5 -13 5 -11.1875 2.125 C-7.34864131 -1.60417702 -5.15505453 -1.15544326 0 0 Z " fill="#050505" transform="translate(47,342)"/>
<path d="M0 0 C3.80470451 0.7133821 5.41196019 1.67868421 8 4.5625 C8.92995212 8.03432124 9.34268246 10.40984082 8.3125 13.875 C5.96517443 16.89299002 3.78565918 17.44548693 0.0625 18 C-3 17.5625 -3 17.5625 -5.875 15.5 C-8 12.5625 -8 12.5625 -8.625 9.0625 C-7.67703424 3.75389177 -5.38444917 1.00958422 0 0 Z " fill="#000606" transform="translate(230,272.4375)"/>
<path d="M0 0 C3.80470451 0.7133821 5.41196019 1.67868421 8 4.5625 C9.0625 8 9.0625 8 9 11.5625 C7.23358828 14.36439446 5.96950178 16.07774911 3 17.5625 C-1.0130324 18.09757099 -2.53928033 17.89301628 -5.875 15.5 C-8 12.5625 -8 12.5625 -8.625 9.0625 C-7.67703424 3.75389177 -5.38444917 1.00958422 0 0 Z " fill="#000606" transform="translate(196,272.4375)"/>
<path d="M0 0 C3.7368843 0.21152175 6.29597177 0.53064784 9.4375 2.625 C11.65946039 6.00237979 11.62601538 8.03523594 11 12 C8.9375 14.9375 8.9375 14.9375 6 17 C2.03523594 17.62601538 0.00237979 17.65946039 -3.375 15.4375 C-5.5699479 12.14507816 -6.06944397 9.95830645 -6 6 C-3.625 3.125 -3.625 3.125 -1 1 C-0.67 0.67 -0.34 0.34 0 0 Z " fill="#050505" transform="translate(74,341)"/>
<path d="M0 0 C2.4375 1.625 2.4375 1.625 4 4 C4.72125695 8.40768137 4.52001338 10.25937488 1.9375 13.9375 C-1 16 -1 16 -4.5 16.6875 C-8 16 -8 16 -11 13.4375 C-13 10 -13 10 -13.125 6.375 C-10.80869361 -0.57391916 -6.85196698 -1.99329948 0 0 Z " fill="#000506" transform="translate(303,274)"/>
<path d="M0 0 C4.21796616 0.86080942 6.17690429 2.46458565 9.0625 5.625 C9.70045207 9.53245641 9.29379757 12.336772 7.0625 15.625 C3.3419164 18.10538907 1.46453429 18.08837203 -2.9375 17.625 C-6.24498965 15.01382396 -7.75430509 12.99896185 -8.3125 8.8125 C-7.9375 5.625 -7.9375 5.625 -5.8125 2.75 C-2.9375 0.625 -2.9375 0.625 0 0 Z " fill="#000506" transform="translate(263.9375,272.375)"/>
<path d="M0 0 C-0.71027344 0.55171875 -1.42054688 1.1034375 -2.15234375 1.671875 C-5.03820209 3.96909887 -5.03820209 3.96909887 -7.69140625 6.578125 C-12.77465542 11.30865892 -16.42129675 14.67703813 -23.75 14.625 C-25.50530281 14.46747282 -27.25966154 14.27771358 -29 14 C-25.09840719 9.6240959 -21.14459371 7.24561815 -15.875 4.75 C-14.80185547 4.2240625 -14.80185547 4.2240625 -13.70703125 3.6875 C-8.91451077 1.35842462 -5.33593037 -0.14421433 0 0 Z " fill="#6F6F6F" transform="translate(306,361)"/>
<path d="M0 0 C2.41936317 -0.16249454 4.82781859 -0.28097817 7.25 -0.375 C7.93191406 -0.42527344 8.61382812 -0.47554688 9.31640625 -0.52734375 C11.328125 -0.5859375 11.328125 -0.5859375 15 0 C17.484375 3.0234375 17.484375 3.0234375 19 6 C12.81667094 6.37857117 8.48951752 5.96433946 3 3 C1.97316137 2.02757909 0.96617984 1.03271318 0 0 Z " fill="#FABF07" transform="translate(295,458)"/>
</svg>
