<?xml version="1.0" standalone="no"?>
<!DOCTYPE svg PUBLIC "-//W3C//DTD SVG 20010904//EN"
 "http://www.w3.org/TR/2001/REC-SVG-20010904/DTD/svg10.dtd">
<svg version="1.0" xmlns="http://www.w3.org/2000/svg"
 width="612.000000pt" height="408.000000pt" viewBox="0 0 612.000000 408.000000"
 preserveAspectRatio="xMidYMid meet">
<metadata>
Created by potrace 1.16, written by Peter Selinger 2001-2019
</metadata>
<g transform="translate(0.000000,408.000000) scale(0.100000,-0.100000)"
fill="#000000" stroke="none">
<path d="M2577 3225 c-24 -17 -78 -102 -99 -152 -30 -74 -39 -113 -45 -196 -7
-107 8 -180 43 -195 24 -12 33 -32 13 -32 -5 0 11 -25 38 -56 26 -31 47 -60
46 -64 -2 -5 27 -36 63 -69 76 -69 175 -121 228 -119 23 1 41 -5 49 -15 15
-19 108 -37 192 -37 96 0 265 34 265 53 0 5 7 6 16 3 8 -3 13 -2 11 2 -3 4 1
13 9 20 8 7 14 10 14 6 0 -3 15 5 34 20 19 14 39 26 45 26 6 0 11 13 11 28 0
16 13 47 29 70 38 51 50 59 46 27 -2 -21 0 -23 12 -13 8 6 21 24 29 40 20 39
2 65 -43 63 -26 -1 -33 3 -33 17 0 10 -6 21 -14 24 -8 3 -12 19 -11 44 2 32
-1 39 -19 44 -12 3 -41 -2 -65 -10 -39 -13 -46 -13 -68 2 -15 10 -28 12 -32 6
-3 -5 -17 -8 -31 -6 -14 1 -55 3 -92 3 -62 1 -70 4 -100 34 l-33 32 -159 13
c-148 12 -161 14 -182 37 -27 29 -25 30 41 9 47 -15 202 -20 214 -8 4 3 -5 15
-19 26 -68 54 -116 103 -122 125 -3 13 -2 21 3 17 11 -7 12 26 0 45 -7 10 -15
8 -40 -15 -17 -15 -31 -33 -31 -40 0 -8 -11 -21 -25 -30 -17 -11 -25 -25 -25
-45 0 -16 -4 -29 -10 -29 -5 0 -10 9 -10 20 0 17 -7 20 -43 20 -54 0 -67 -13
-67 -67 0 -45 9 -53 30 -28 7 8 21 15 32 15 15 0 17 -3 8 -19 -13 -26 -13 -31
5 -31 10 0 15 -11 15 -35 l0 -35 -46 35 c-25 19 -51 35 -58 35 -23 0 -56 45
-56 77 0 17 -7 50 -15 73 -15 43 -15 43 30 143 25 55 44 101 42 103 -1 1 -10
-4 -20 -11z m339 -461 c13 -13 34 -24 48 -24 17 0 28 -8 38 -30 7 -16 19 -30
26 -30 7 0 20 -4 30 -9 9 -5 36 -15 60 -22 47 -14 53 -31 24 -70 -10 -13 -23
-36 -29 -50 -8 -18 -28 -32 -69 -48 -31 -12 -60 -18 -63 -13 -5 7 -43 12 -113
15 -10 1 -18 7 -18 14 0 6 -16 24 -36 40 -64 49 -106 138 -73 159 6 3 9 20 6
38 -3 23 1 36 16 48 29 25 120 14 153 -18z"/>
<path d="M3701 2404 c-40 -14 -83 -31 -95 -39 -11 -7 -50 -24 -86 -36 -87 -29
-158 -65 -198 -100 -32 -28 -34 -29 -63 -13 -18 9 -66 17 -117 20 -171 8 -298
38 -414 95 -79 40 -173 37 -288 -9 -94 -37 -121 -50 -168 -80 -29 -18 -50 -37
-47 -41 2 -5 -7 -16 -21 -26 -21 -13 -24 -22 -19 -43 9 -35 104 -153 153 -189
20 -15 39 -31 42 -34 3 -4 28 -18 55 -32 38 -19 73 -27 145 -32 52 -4 104 -7
115 -6 11 0 44 -9 74 -20 77 -28 240 -51 315 -44 248 26 452 117 601 269 69
71 213 264 223 299 9 33 -62 88 -110 86 -13 0 -56 -12 -97 -25z m146 -30 c2
-6 -10 -26 -27 -45 -17 -19 -40 -47 -53 -63 -59 -76 -223 -216 -254 -216 -6 0
-24 -7 -42 -16 -21 -11 -42 -14 -59 -9 -15 4 -44 7 -64 7 -24 0 -36 4 -32 10
5 7 -4 9 -24 6 -17 -2 -29 -1 -26 4 7 12 83 45 123 53 18 4 29 10 23 14 -6 4
23 24 66 44 42 21 100 58 127 82 28 25 56 45 63 45 6 0 12 7 12 16 0 8 4 13 9
9 6 -3 15 4 21 15 6 11 14 18 18 16 5 -3 26 6 47 19 42 24 66 28 72 9z m-1091
-125 c185 -48 164 -44 324 -64 69 -8 127 -20 128 -25 2 -6 15 -10 28 -10 34 0
30 -26 -7 -46 -38 -19 -135 -21 -234 -5 -38 6 -126 12 -194 14 -89 1 -126 6
-129 15 -2 6 -14 12 -26 12 -13 0 -33 9 -46 20 -13 11 -34 23 -47 26 -13 4
-23 10 -23 15 0 5 -15 9 -32 9 l-33 1 30 14 c29 14 28 14 -25 8 -30 -3 -58
-10 -61 -16 -4 -6 -9 -5 -13 1 -3 6 -20 8 -36 6 -59 -10 -28 4 48 21 42 9 82
19 87 20 37 12 192 3 261 -16z"/>
<path d="M2135 1579 c-4 -5 -7 -51 -8 -102 0 -86 -1 -90 -14 -60 -18 45 -53
65 -113 66 -37 0 -57 -6 -81 -24 -28 -22 -31 -31 -36 -89 -4 -57 -2 -68 19
-92 13 -16 42 -32 68 -39 65 -17 114 5 140 63 l20 43 0 -52 0 -53 40 0 40 0 0
175 0 175 -34 0 c-19 0 -38 -5 -41 -11z"/>
<path d="M1753 1480 c-47 -11 -63 -28 -63 -66 0 -37 20 -61 67 -81 46 -19 42
-35 -8 -32 -43 3 -67 -17 -56 -46 7 -17 77 -29 117 -20 43 9 60 31 60 75 0 44
-15 63 -65 81 -54 20 -43 46 13 30 32 -10 42 -1 42 40 0 13 -7 19 -24 19 -13
0 -30 2 -38 4 -7 2 -28 0 -45 -4z"/>
<path d="M2242 1478 c-15 -15 -16 -153 -1 -196 13 -38 59 -60 93 -44 12 5 43
8 69 5 l47 -6 1 89 c3 163 -1 175 -48 158 -26 -9 -27 -12 -28 -82 0 -61 -3
-76 -19 -88 -34 -24 -46 -1 -46 87 0 62 -3 79 -14 79 -8 0 -20 2 -28 5 -7 3
-19 0 -26 -7z"/>
<path d="M2703 1483 c-25 -5 -26 -8 -23 -110 1 -38 -3 -63 -9 -63 -6 0 -8 -8
-5 -17 5 -17 5 -17 -6 0 -9 14 -19 16 -46 11 -43 -8 -64 8 -64 51 0 43 27 67
67 59 27 -5 31 -3 37 20 10 40 1 46 -63 46 -44 0 -65 -5 -84 -21 -58 -45 -54
-169 6 -204 29 -17 39 -18 175 -16 l72 1 0 113 c0 104 -8 141 -29 136 -4 -1
-16 -4 -28 -6z"/>
<path d="M3035 1480 c-3 -5 -8 -187 -6 -227 1 -8 16 -13 41 -13 l39 0 3 82 c3
72 6 83 22 86 28 6 36 -15 36 -95 l0 -73 38 0 38 0 -4 103 c-5 130 -9 137 -72
137 -27 0 -52 -5 -56 -11 -4 -8 -9 -7 -14 2 -8 13 -58 20 -65 9z"/>
<path d="M3362 1481 c-61 -10 -94 -46 -99 -108 -8 -94 58 -157 147 -139 53 10
64 20 56 51 -6 23 -11 26 -29 20 -35 -12 -78 -9 -88 6 -7 11 5 15 63 17 l71 3
-6 56 c-5 46 -11 61 -34 79 -15 13 -30 23 -33 22 -3 0 -24 -4 -48 -7z"/>
<path d="M3585 1482 c-58 -4 -95 -31 -95 -72 0 -37 19 -59 65 -74 22 -8 40
-20 40 -28 0 -15 -41 -19 -68 -6 -13 7 -20 3 -29 -17 -16 -36 -1 -47 65 -49
68 -1 103 17 111 57 8 40 -13 71 -65 98 -48 24 -44 34 11 31 36 -3 40 -1 40
21 0 34 -17 43 -75 39z"/>
<path d="M2814 1462 c-32 -25 -44 -55 -44 -106 0 -93 94 -150 177 -109 45 21
63 53 63 110 0 54 -15 86 -50 106 -37 22 -118 22 -146 -1z"/>
</g>
</svg>
